<svg width="46" height="65" fill="none" xmlns="http://www.w3.org/2000/svg">
  <path d="M20.816 29.944h-.563l-.003-.018-.016-.069a5.09 5.09 0 0 0-.032-.134l-.015-.063a9.523 9.523 0 0 0-.045-.177l-.005-.016a8.111 8.111 0 0 0-.055-.19l-.018-.062-.04-.129-.023-.07a6.495 6.495 0 0 0-.043-.124l-.022-.065a7.031 7.031 0 0 0-.057-.154l-.012-.032a7.571 7.571 0 0 0-.072-.18l-.027-.064-.05-.117-.032-.072a7.38 7.38 0 0 0-.084-.183c-.02-.043-.039-.085-.061-.128l-.025-.049a6.16 6.16 0 0 0-.086-.166l-.04-.07-.055-.101-.043-.075-.055-.094a2.274 2.274 0 0 0-.045-.075c-.02-.034-.04-.068-.062-.101l-.056-.092-.082-.125a5.298 5.298 0 0 0-.052-.078l-.056-.083c-.02-.027-.04-.055-.057-.082a.983.983 0 0 0-.055-.074c-.019-.024-.04-.055-.06-.083l-.055-.075c-.04-.05-.076-.1-.115-.15l-.054-.068-.07-.085-.052-.063c-.024-.03-.048-.058-.073-.086l-.051-.06-.077-.086-.045-.05a9.498 9.498 0 0 0-.29-.306l-.044-.044-.09-.088-.045-.043a7.278 7.278 0 0 0-.095-.09l-.033-.03a8.237 8.237 0 0 0-.343-.3l-.032-.026a7.135 7.135 0 0 0-.11-.088l-.036-.03c-.04-.03-.075-.06-.113-.089l-.02-.014c-.129-.1-.261-.195-.395-.288l-.018-.013a9.713 9.713 0 0 0-.127-.085l-.028-.018c-.044-.03-.087-.057-.131-.085l-.008-.005a9.483 9.483 0 0 0-.444-.265l-.006-.003a11.842 11.842 0 0 0-.143-.078l-.021-.012a9.62 9.62 0 0 0-.783-.374l-.017-.007a9.163 9.163 0 0 0-.213-.087h1.412c.23 0 .417-.251.417-.562 0-.31-.186-.56-.417-.56h-.42l.086-.215c.398-.235 1.098-.736 1.793-1.656l.005-.007c.053-.069.105-.14.155-.213l.01-.015c.051-.072.102-.147.151-.225l.014-.02.07-.113s0-.002.004-.004l.072-.119.016-.026.061-.105.012-.02.07-.123.015-.028a6.403 6.403 0 0 0 .139-.263l.015-.03.052-.107.02-.038.063-.134.013-.029.05-.112.021-.045a7.044 7.044 0 0 0 .121-.291l.02-.05.048-.124.012-.031.055-.15.019-.053.042-.12.015-.045a12.614 12.614 0 0 0 .068-.212l.04-.123c.005-.018.01-.038.016-.054a9.077 9.077 0 0 0 .097-.349l.016-.06c.014-.057.03-.115.043-.174l.012-.049.033-.141.014-.064a12.913 12.913 0 0 0 .079-.383l.013-.066.03-.168.006-.036.032-.199a16.55 16.55 0 0 0 .034-.232l.008-.05.027-.21.008-.066a8.25 8.25 0 0 0 .026-.228l.02-.22c0-.02.004-.04.006-.062l.015-.178c0-.022.003-.044.005-.066l.015-.23c0-.018 0-.038.003-.054l.01-.194c0-.024 0-.047.003-.07l.009-.244v-.035l.004-.22V12.618c0-.075-.003-.153-.005-.231v-.043c-.002-.09-.006-.18-.01-.271L19.44 12a17.182 17.182 0 0 0-.012-.232c0-.019 0-.037-.003-.058a29.902 29.902 0 0 0-.018-.283l-.005-.066-.018-.24c0-.023-.004-.046-.006-.069a27.538 27.538 0 0 0-.027-.295c0-.018-.003-.037-.005-.056l-.027-.255a23.313 23.313 0 0 0-.044-.385c0-.012-.003-.025-.005-.037a22.797 22.797 0 0 0-.036-.28l-.011-.083-.046-.322C17.598-1.316 6.41.414 6.41.414l.358 2.29L0 9.48l.296 2.617 2.563 1.497c.114-.276.261-.538.438-.782C4.95 11.004 8.159 9.584 9.078 9.29c.184-.059.289-.088.289-.088-4.394 5.391-3.895 11.568-3.699 13.04-.203.037-.361.27-.361.555 0 .31.187.561.417.561h1.413c-2.35.933-4.215 2.709-5.189 4.94a2.614 2.614 0 0 0-.31.836l-.02.065-.037.121-.021.075a4.219 4.219 0 0 0-.054.2c-.01.037-.02.074-.028.111-.01.038-.018.075-.027.115l-.03.13H.86a.853.853 0 0 0-.587.22.77.77 0 0 0-.181.252.737.737 0 0 0 .18.85.821.821 0 0 0 .588.22h19.964a.853.853 0 0 0 .587-.22.772.772 0 0 0 .181-.252.737.737 0 0 0-.18-.85.853.853 0 0 0-.587-.22l-.008-.007ZM44.471 29.944h-.563c0-.006-.002-.012-.004-.018l-.015-.069a4.723 4.723 0 0 0-.047-.197 9.523 9.523 0 0 0-.045-.177l-.005-.016a7.653 7.653 0 0 0-.055-.19l-.019-.062-.039-.129-.023-.07a6.492 6.492 0 0 0-.042-.124l-.023-.065a7.033 7.033 0 0 0-.057-.154l-.012-.032a7.571 7.571 0 0 0-.072-.18l-.027-.064-.05-.117-.032-.072a8.498 8.498 0 0 0-.084-.183c-.02-.043-.04-.085-.062-.128l-.024-.049a6.464 6.464 0 0 0-.086-.166l-.04-.07-.055-.101-.043-.075a11.465 11.465 0 0 0-.1-.17c-.02-.033-.04-.067-.062-.1l-.057-.092-.08-.125a4.61 4.61 0 0 0-.053-.078l-.056-.083c-.02-.027-.04-.055-.057-.082a.982.982 0 0 0-.055-.074c-.019-.024-.04-.055-.06-.083l-.055-.075c-.04-.05-.076-.1-.115-.15l-.054-.068-.07-.085-.052-.063c-.024-.03-.049-.058-.073-.086l-.051-.06-.077-.086-.045-.05a9.282 9.282 0 0 0-.29-.306l-.044-.044-.09-.088-.045-.043a7.285 7.285 0 0 0-.095-.09l-.033-.03a8.175 8.175 0 0 0-.344-.3l-.032-.026a7.668 7.668 0 0 0-.108-.088l-.037-.03c-.04-.03-.075-.06-.113-.089l-.02-.014c-.129-.1-.261-.195-.395-.288l-.018-.013a10.436 10.436 0 0 0-.127-.085l-.028-.018c-.044-.03-.088-.057-.131-.085l-.008-.005a9.535 9.535 0 0 0-.444-.265l-.006-.003c-.048-.027-.095-.053-.143-.078l-.021-.012a9.619 9.619 0 0 0-.783-.374l-.017-.007a9.17 9.17 0 0 0-.213-.087h1.412c.23 0 .417-.251.417-.562 0-.31-.186-.56-.417-.56h-.42l.086-.215c.398-.235 1.098-.736 1.793-1.656l.005-.007c.053-.069.104-.14.155-.213l.01-.015c.051-.072.102-.147.151-.225l.014-.02.07-.113s0-.002.004-.004l.072-.119.016-.026.061-.105.012-.02.07-.123.015-.028a6.405 6.405 0 0 0 .139-.263l.015-.03.052-.107.02-.038.063-.134.012-.029.052-.112.02-.045a7.046 7.046 0 0 0 .121-.291l.02-.05.048-.124.012-.031.055-.15.019-.053.042-.12.014-.045a12.61 12.61 0 0 0 .07-.212l.039-.123.015-.054c.017-.054.033-.11.048-.165l.015-.054.035-.13.016-.06.043-.174.012-.049.033-.141.014-.064.04-.184a9.671 9.671 0 0 0 .04-.2l.012-.065.03-.168.006-.036.032-.199.01-.068.025-.164.007-.05.027-.21.008-.066.019-.168.007-.06.02-.22c0-.02.004-.04.006-.062l.015-.178c0-.022.003-.044.005-.066l.015-.23c0-.018 0-.038.003-.054l.01-.194c0-.024 0-.047.003-.07l.009-.244v-.035l.004-.22V12.618c0-.075-.003-.153-.005-.231v-.043a33.15 33.15 0 0 0-.01-.271L43.095 12a19.002 19.002 0 0 0-.012-.232c0-.019 0-.037-.003-.058a29.923 29.923 0 0 0-.018-.283l-.005-.066-.018-.24c0-.023-.004-.046-.006-.069a27.538 27.538 0 0 0-.027-.295c0-.018-.004-.037-.005-.056a34.138 34.138 0 0 0-.07-.64c0-.012-.004-.025-.006-.037a22.797 22.797 0 0 0-.036-.28l-.011-.083-.046-.322C41.253-1.316 30.064.414 30.064.414l.358 2.29-6.767 6.777.296 2.617 2.563 1.497c.114-.276.261-.538.438-.782 1.653-1.809 4.862-3.229 5.781-3.523.184-.059.289-.088.289-.088-4.394 5.391-3.895 11.568-3.699 13.04-.204.037-.361.27-.361.555 0 .31.187.561.417.561h1.413c-2.35.933-4.215 2.709-5.189 4.94a8.869 8.869 0 0 0-.253.658l-.017.051a2.626 2.626 0 0 0-.04.127l-.02.065-.037.121-.021.075a4.149 4.149 0 0 0-.054.2l-.029.111-.026.115-.03.13h-.563a.853.853 0 0 0-.586.22.77.77 0 0 0-.181.252.737.737 0 0 0 .18.85.853.853 0 0 0 .587.22h19.965a.853.853 0 0 0 .587-.22.77.77 0 0 0 .181-.252.737.737 0 0 0-.18-.85.853.853 0 0 0-.587-.22l-.008-.007ZM20.816 63.127h-.563l-.003-.018-.016-.069a5.09 5.09 0 0 0-.032-.134l-.015-.063a9.523 9.523 0 0 0-.045-.177l-.005-.016a8.253 8.253 0 0 0-.055-.19l-.018-.061-.04-.13-.023-.07a6.495 6.495 0 0 0-.043-.124l-.022-.065a7.031 7.031 0 0 0-.057-.154c-.005-.01-.008-.021-.012-.032a7.571 7.571 0 0 0-.072-.18l-.027-.063-.05-.118-.032-.072a7.38 7.38 0 0 0-.084-.182c-.02-.044-.039-.086-.061-.129l-.025-.049a6.16 6.16 0 0 0-.086-.166l-.04-.07-.055-.101-.043-.075-.055-.094a2.274 2.274 0 0 0-.045-.075c-.02-.034-.04-.068-.062-.101l-.056-.091c-.027-.042-.054-.085-.082-.126a5.298 5.298 0 0 0-.052-.078l-.056-.083c-.02-.027-.04-.054-.057-.081a.983.983 0 0 0-.055-.075c-.019-.024-.04-.055-.06-.083l-.055-.074c-.04-.05-.076-.1-.115-.15l-.054-.069-.07-.085-.052-.063-.073-.086-.051-.06-.077-.086-.045-.05a9.498 9.498 0 0 0-.29-.306l-.044-.044-.09-.088-.045-.043a7.278 7.278 0 0 0-.095-.09l-.033-.03a8.237 8.237 0 0 0-.343-.299l-.032-.027a7.135 7.135 0 0 0-.11-.088l-.036-.03-.113-.088-.02-.015c-.129-.099-.261-.195-.395-.288l-.018-.013a9.713 9.713 0 0 0-.127-.085l-.028-.018c-.044-.03-.087-.057-.131-.085l-.008-.005a9.483 9.483 0 0 0-.444-.264l-.006-.004c-.047-.027-.095-.052-.143-.078l-.021-.012a9.62 9.62 0 0 0-.783-.374l-.017-.007a9.623 9.623 0 0 0-.213-.087h1.412c.23 0 .417-.251.417-.561 0-.31-.186-.562-.417-.562h-.42c.026-.063.055-.134.086-.214.398-.235 1.098-.736 1.793-1.656l.005-.007c.053-.069.105-.14.155-.213l.01-.015c.051-.072.102-.147.151-.224l.014-.021.07-.112s0-.003.004-.005l.072-.119.016-.026.061-.105.012-.02.07-.122.015-.03a6.403 6.403 0 0 0 .139-.262l.015-.03.052-.107.02-.038.063-.134.013-.029.05-.112.021-.045a7.044 7.044 0 0 0 .121-.29l.02-.05.048-.125.012-.031.055-.15.019-.053.042-.12.015-.045a12.614 12.614 0 0 0 .068-.212l.04-.123c.005-.018.01-.038.016-.054a9.077 9.077 0 0 0 .097-.349l.016-.059c.014-.058.03-.116.043-.174l.012-.05.033-.14.014-.065a12.913 12.913 0 0 0 .079-.383l.013-.066.03-.168.006-.035.032-.2a16.128 16.128 0 0 0 .034-.232l.008-.05.027-.209.008-.067a8.341 8.341 0 0 0 .026-.228l.02-.22c0-.02.004-.04.006-.061l.015-.179c0-.022.003-.044.005-.066l.015-.23c0-.018 0-.038.003-.054l.01-.194c0-.024 0-.047.003-.07l.009-.244v-.035l.004-.22V45.8c0-.075-.003-.153-.005-.231v-.042c-.002-.09-.006-.181-.01-.272l-.003-.072a17.182 17.182 0 0 0-.012-.232c0-.019 0-.037-.003-.058a29.902 29.902 0 0 0-.018-.282l-.005-.067-.018-.24c0-.023-.004-.046-.006-.069a27.538 27.538 0 0 0-.027-.294c0-.02-.003-.038-.005-.057l-.027-.255a23.313 23.313 0 0 0-.044-.385c0-.012-.003-.025-.005-.037a22.84 22.84 0 0 0-.036-.28l-.011-.083-.046-.321C17.598 31.867 6.41 33.597 6.41 33.597l.358 2.29L0 42.663l.296 2.617 2.563 1.497c.114-.275.261-.538.438-.782 1.654-1.809 4.862-3.228 5.781-3.523.184-.059.289-.088.289-.088-4.394 5.391-3.895 11.568-3.699 13.04-.203.037-.361.27-.361.555 0 .31.187.561.417.561h1.413c-2.35.933-4.215 2.709-5.189 4.94a2.614 2.614 0 0 0-.31.836l-.02.066-.037.12-.021.075a4.219 4.219 0 0 0-.054.2c-.01.037-.02.074-.028.112-.01.037-.018.074-.027.114l-.03.13H.86a.853.853 0 0 0-.587.22.772.772 0 0 0-.181.252.737.737 0 0 0 .18.85.821.821 0 0 0 .588.22h19.964a.853.853 0 0 0 .587-.22.772.772 0 0 0 .181-.252.737.737 0 0 0-.18-.85.822.822 0 0 0-.588-.22l-.007-.007ZM44.471 63.127h-.563c0-.006-.002-.012-.004-.018l-.015-.069a4.723 4.723 0 0 0-.047-.197 9.523 9.523 0 0 0-.045-.177l-.005-.016a7.78 7.78 0 0 0-.055-.19l-.019-.061-.039-.13-.023-.07a6.492 6.492 0 0 0-.042-.124l-.023-.065a7.033 7.033 0 0 0-.057-.154c-.005-.01-.008-.021-.012-.032a7.571 7.571 0 0 0-.072-.18l-.027-.063-.05-.118-.032-.072a8.498 8.498 0 0 0-.084-.182c-.02-.044-.04-.086-.062-.129l-.024-.049a6.464 6.464 0 0 0-.086-.166l-.04-.07-.055-.101-.043-.075a13.414 13.414 0 0 0-.1-.17l-.062-.1-.057-.091-.08-.126a4.61 4.61 0 0 0-.053-.078l-.056-.083c-.02-.027-.04-.054-.057-.081a.982.982 0 0 0-.055-.075c-.019-.024-.04-.055-.06-.083l-.055-.074c-.04-.05-.076-.1-.115-.15l-.054-.069-.07-.085-.052-.063-.073-.086-.051-.06-.077-.086-.045-.05a9.282 9.282 0 0 0-.29-.306l-.044-.044-.09-.088-.045-.043a7.285 7.285 0 0 0-.095-.09l-.033-.03a8.175 8.175 0 0 0-.344-.299l-.032-.027a7.668 7.668 0 0 0-.108-.088l-.037-.03-.113-.088-.02-.015a10.43 10.43 0 0 0-.395-.288l-.018-.013a10.436 10.436 0 0 0-.127-.085l-.028-.018c-.044-.03-.088-.057-.131-.085l-.008-.005a9.535 9.535 0 0 0-.444-.264l-.006-.004-.143-.078-.021-.012a9.619 9.619 0 0 0-.783-.374l-.017-.007a9.631 9.631 0 0 0-.213-.087h1.412c.23 0 .417-.251.417-.561 0-.31-.186-.562-.417-.562h-.42l.086-.214c.398-.235 1.098-.736 1.793-1.656l.005-.007c.053-.069.104-.14.155-.213l.01-.015c.051-.072.102-.147.151-.224l.014-.021.07-.112s0-.003.004-.005l.072-.119.016-.026.061-.105.012-.02.07-.122.015-.03a6.405 6.405 0 0 0 .139-.262l.015-.03.052-.107.02-.038.063-.134.012-.029.052-.112.02-.045a7.046 7.046 0 0 0 .121-.29l.02-.05.048-.125.012-.031.055-.15.019-.053.042-.12.014-.045a12.61 12.61 0 0 0 .07-.212l.039-.123.015-.054c.017-.054.033-.11.048-.165l.015-.054.035-.13.016-.059.043-.174.012-.05.033-.14.014-.065.04-.184a9.887 9.887 0 0 0 .04-.2l.012-.065.03-.168.006-.035.032-.2.01-.067.025-.165.007-.05.027-.209.008-.067.019-.168.007-.06.02-.22c0-.02.004-.04.006-.061l.015-.179c0-.022.003-.044.005-.066l.015-.23c0-.018 0-.038.003-.054l.01-.194c0-.024 0-.047.003-.07l.009-.244v-.035l.004-.22V45.8c0-.075-.003-.153-.005-.231v-.042l-.01-.272-.003-.072a19.002 19.002 0 0 0-.012-.232c0-.019 0-.037-.003-.058a29.923 29.923 0 0 0-.018-.282l-.005-.067-.018-.24c0-.023-.004-.046-.006-.069a27.538 27.538 0 0 0-.027-.294c0-.02-.004-.038-.005-.057a34.138 34.138 0 0 0-.07-.64c0-.012-.004-.025-.006-.037a22.84 22.84 0 0 0-.036-.28l-.011-.083a77.16 77.16 0 0 0-.046-.321c-1.579-10.657-12.768-8.927-12.768-8.927l.358 2.29-6.767 6.777.296 2.617 2.563 1.497c.114-.275.261-.538.438-.782 1.653-1.809 4.862-3.228 5.781-3.523.184-.059.289-.088.289-.088-4.394 5.391-3.895 11.568-3.699 13.04-.204.037-.361.27-.361.555 0 .31.187.561.417.561h1.413c-2.35.933-4.215 2.709-5.189 4.94a8.869 8.869 0 0 0-.253.658l-.017.051a2.626 2.626 0 0 0-.04.127l-.02.066-.037.12-.021.075a4.149 4.149 0 0 0-.054.2l-.029.112-.026.114-.03.13h-.563a.853.853 0 0 0-.586.22.77.77 0 0 0-.181.252.737.737 0 0 0 .18.85.853.853 0 0 0 .587.22h19.965a.853.853 0 0 0 .587-.22.77.77 0 0 0 .181-.252.737.737 0 0 0-.18-.85.821.821 0 0 0-.588-.22l-.007-.007Z" fill="#595653"/>
</svg>
