<svg width="351" height="351" fill="none" xmlns="http://www.w3.org/2000/svg">
  <circle cx="175.777" cy="175.577" r="148.737" fill="#FBCE51"/>
  <g style="mix-blend-mode:overlay" fill="#313131">
    <path d="m240.022 303.156-.177-.369.675-.462-1.884-3.764-.15 1.245-.858 3.718.082.206.703-.225.177.369-2.072 1.051-.177-.368.566-.4-2.319-4.707-.661.236-.176-.368 2.115-1.04.176.368-.608.388 1.915 3.818.127-1.159.881-3.804-.157-.271-.757.256-.177-.369 2.115-1.04.177.369-.609.387 2.32 4.708.648-.194.177.369-2.072 1.052Zm-5.128 2.345a5.378 5.378 0 0 1-.555.356 2.796 2.796 0 0 1-.477.239c-.629.291-1.169.422-1.608.35-.44-.072-.748-.293-.945-.758-.165-.412-.202-.789-.056-1.163.146-.374.41-.671.747-.902-.466.197-.886.222-1.271.119-.374-.146-.628-.398-.805-.767-.259-.574-.273-1.037-.061-1.485.212-.448.681-.828 1.418-1.181.315-.145.617-.248.855-.276.248-.071.485-.1.625-.108.14-.008.237-.028.28-.017l.45 1.406-.369.177-.673-.915c-.311-.038-.657.053-1.123.25-.357.134-.554.356-.635.656-.08.3-.032.634.133 1.046.146.314.357.554.645.678.288.123.665.086 1.131-.111l.52-.227.209.423-.466.196c-.206.083-.381.22-.566.399a1.782 1.782 0 0 0-.301.608c-.015.226.002.506.116.766.134.357.357.555.614.624.257.068.548.009.905-.125.217-.125.423-.208.555-.356.131-.149.209-.266.232-.352l-.159-.777.477-.239.604 1.172a4.547 4.547 0 0 0-.446.294Zm-6.861 2.476.68-.139.165.412-1.072.401c-.163.094-.411.165-.671.279-.26.114-.423.208-.532.271-.714.268-1.286.344-1.671.241-.386-.103-.683-.367-.836-.821-.134-.357-.171-.734-.036-1.065.092-.343.355-.64.681-.828-.509.185-.94.253-1.314.107a1.345 1.345 0 0 1-.825-.864c-.228-.52-.187-1.014.079-1.494.266-.479.789-.89 1.655-1.209.206-.082.358-.134.552-.173.4-.123.66-.237.757-.256l1.029-.413.122.4-.64.333 1.877 4.818Zm-3.563-4.352c-.52.228-.857.459-1.035.779-.177.32-.129.654-.007 1.054.165.412.377.652.665.775.288.123.665.087 1.131-.11.52-.228.866-.319 1.029-.413l-.886-2.349c-.182-.003-.442.111-.897.264Zm1.471 2.736-.412.165c-.357.134-.597.345-.72.633-.123.289-.118.611.059.98.133.357.345.598.59.709.246.112.623.075 1.088-.121.206-.083.369-.177.575-.259l.163-.095-.834-2.197c-.109.063-.261.114-.509.185Zm-4.596 4.645-.866.319-3.79-4.872-.529.088-.122-.4 2.12-.718.123.4-.629.291.767 1.078 2.326-.8-.021-1.291-.723.127-.122-.4 1.914-.634.123.4-.478.239-.093 6.173Zm-.895-1.112.43.62-.062-.797-.071-2.82-2.023.698 1.726 2.299Zm-5.693-3.087c.514.138.908.381 1.256.796.348.415.631.903.781 1.541.162.594.196 1.154.09 1.722a2.478 2.478 0 0 1-.733 1.365 3.427 3.427 0 0 1-1.37.826c-.4.123-.928.211-1.531.233l-.28.017-.341-1.469.552-.174.521.967c.086.022.257.068.44.071.183.004.431-.068.723-.127.346-.091.629-.291.837-.556.209-.266.355-.64.373-1.048a4.596 4.596 0 0 0-.17-1.423c-.142-.497-.338-.963-.612-1.312-.274-.348-.559-.654-.891-.789a1.68 1.68 0 0 0-1.128-.073c-.291.06-.508.185-.617.248-.109.063-.24.211-.317.328l-.102.891-.528.088-.141-1.186c.097-.019.26-.114.477-.239.174-.137.337-.231.543-.314.163-.094.411-.165.66-.236a2.096 2.096 0 0 1 1.508-.147Zm-6.349 6.563c-.169.459-.424.896-.73 1.181-.36.317-.74.537-1.172.605-.54.13-1.034.09-1.451-.068a2.498 2.498 0 0 1-1.104-.847 3.373 3.373 0 0 1-.653-1.506c-.139-.68-.161-1.283-.066-1.808a2.796 2.796 0 0 1 .69-1.376c.329-.371.752-.579 1.249-.721.54-.131 1.046-.133 1.506.036.459.169.799.444 1.115.804.306.403.545.88.653 1.506l1.317-.29-.551-2.397-.712.085-.079-.389 2.257-.543.08.389-.661.236 1.206 5.098.657-.054.079.389-2.203.511-.079-.388.66-.237-.512-2.203-1.328.333c.01.646-.042 1.183-.168 1.654Zm-.932.393c.192-.546.193-1.234-.017-2.163-.202-.788-.493-1.417-.895-1.8s-.862-.553-1.445-.433c-.54.13-.857.459-1.038.961-.18.503-.15 1.245.06 2.174.202.789.45 1.406.852 1.789.391.426.862.552 1.359.41.572-.076.932-.393 1.124-.938Zm-8.657-.759c-.254-.252-.625-.581-1.016-1.007-.285-.306-.453-.534-.602-.666-.148-.132-.265-.209-.351-.232l-.311-.037-.079-.389 1.014-.187c.14-.009.3.08.479.266.18.186.465.492.771.895.379.469.664.775.918 1.027.211.24.414.34.608.3l.529-.088-.423-2.362-.743.03-.079-.388 2.265-.403.068.431-.648.193.913 5.158h.689l.068.432-2.211.371-.046-.517.661-.236-.412-2.406-.723.128-1.271 2.689.7-.042.068.432-2.029.374-.068-.431.649-.194 1.38-2.752c-.226-.014-.503-.18-.768-.389Zm-3.765-1.881c.448.212.776.529 1.016 1.007.251.434.424.986.532 1.611a3.422 3.422 0 0 1-.148 1.751 3.01 3.01 0 0 1-.838 1.245 2.822 2.822 0 0 1-1.398.589c-.863.136-1.591-.059-2.099-.562-.508-.504-.872-1.198-.974-2.189-.096-.669-.033-1.249.148-1.751.192-.546.478-.928.85-1.288a3.129 3.129 0 0 1 1.397-.589c.572-.077 1.066-.036 1.514.176Zm.348 4.868c.235-.534.322-1.2.209-2.148-.094-.851-.341-1.469-.721-1.938-.379-.469-.839-.638-1.367-.55-.529.088-.921.351-1.155.884-.235.534-.333 1.243-.209 2.148.094.852.341 1.469.732 1.895.348.415.796.626 1.368.55.505-.002.908-.307 1.143-.841Zm-5.474 1.241.677.044.025.42-1.131.11c-.183-.003-.432.068-.712.085-.291.059-.474.056-.571.076-.754.074-1.334.01-1.685-.222s-.539-.557-.596-1.032a1.757 1.757 0 0 1 .233-1.039c.166-.277.503-.508.903-.63-.517.045-.957-.027-1.308-.259-.351-.232-.528-.6-.553-1.02-.033-.56.093-1.031.476-1.434.383-.402 1.001-.65 1.938-.72.194-.04.377-.037.602-.022.42-.025.7-.042.786-.019l1.131-.11.026.42-.681.139.44 5.213Zm-2.248-5.147c-.56.034-.971.199-1.18.464-.252.254-.344.597-.275 1.028.025.42.17.735.404.889.234.155.62.258 1.094.201.56-.033.937-.07 1.088-.121l-.205-2.488c-.172-.046-.452-.029-.926.027Zm.702 3.035-.474.056c-.377.037-.692.182-.846.416-.155.234-.246.577-.21.954.037.377.139.68.373.834.235.155.577.247 1.051.19.195-.04.42-.025.626-.108l.194-.039-.197-2.349c-.14.009-.28.017-.517.046Zm-11.684 3.342-.025-.42.723-.128-.16-5.23-.805-.078-.025-.42 2.356-.057.026.42-.712.085.148 5.273 2.68-.063-.148-5.273-.763-.067-.025-.42 2.356-.057.026.42-.669.097.16 5.23.708.098.025.42-5.876.17Zm-1.987-5.95c.382.287.699.647.884 1.156.197.465.273 1.037.284 1.682-.033.634-.139 1.203-.405 1.682-.266.48-.595.851-1.03 1.102a2.905 2.905 0 0 1-1.437.395c-.871-.004-1.522-.316-1.976-.851-.442-.577-.655-1.323-.66-2.334-.01-.646.15-1.246.417-1.725.266-.48.606-.893 1.041-1.144a2.829 2.829 0 0 1 1.48-.384c.548.009 1.019.135 1.402.421Zm-.34 4.867c.309-.468.493-1.153.508-2.067-.008-.828-.147-1.508-.429-1.997-.282-.489-.719-.744-1.267-.753-.549-.009-.983.242-1.292.71-.309.468-.505 1.196-.52 2.11-.004.871.104 1.497.429 1.997.282.489.719.744 1.267.753.529-.088.952-.296 1.304-.753Zm-6.649-3.112c.164-.783.356-1.328.642-1.711.143-.191.274-.339.437-.433a1.06 1.06 0 0 1 .54-.131c.269.026.452.029.58.063l-.001.689c-.128-.035-.354-.049-.622-.075-.086-.023-.183-.003-.292.059a.95.95 0 0 0-.24.211c-.495.648-.765 1.999-.896 4.03l-.044.677.966.167-.018.408-4.878-.297.017-.409.797-.061.346-5.233-.836-.132.017-.409 2.568.183-.018.409-.882.038-.347 5.233 1.72.094.067-.763c.124-.977.225-1.868.377-2.607Zm-5.354 3.018.685.184-.06.397-4.284-.46.033-1.322.494.041.147.82 2.082.282.266-2.362-1.385-.142-.184.686-.451-.029.193-1.923.452.03.03.742 1.374.185.257-2.502-2.385-.18-.544 1.002-.491-.224.391-1.456 4.638.508-.061.397-.688-.001-.509 5.327Zm-6.957-.762 1.428.153.545-1.691.525.095-.457 2.219-5.203-.797.231-2.234.525.095.024 1.797 1.448.25.766-5.258-1.168-.267.061-.397 3.175.484-.06.397-1.085-.061-.755 5.215Zm-6.008-4.135.397.06c.152-.051.338-.231.492-.465.155-.234.418-.531.65-.882.231-.351.44-.616.583-.807.143-.192.252-.254.338-.231l1.136.212-.06.397-.334.049a.493.493 0 0 0-.326.188c-.12.105-.318.328-.527.593-.274.34-.483.605-.669.785-.197.223-.36.317-.566.399.363.189.616.441.762.755.145.315.182.692.11 1.132-.13.654-.427 1.079-.839 1.244-.454.154-1.014.187-1.754.035l-.599-.161-.6-.16-1.179-.225.06-.397.72.056 1.012-5.147-.76-.249.06-.397 2.445.471-.06.397-.806-.078-.402 2.188.716.238Zm-1.146 2.906.643.173c.44.071.762.066 1.034-.091.271-.156.437-.433.521-.916.072-.44.035-.817-.164-1.1-.2-.283-.477-.449-.905-.564-.44-.072-.74-.152-.88-.144l-.494 2.531.245.111Zm-4.769-1.048 1.436.293.674-1.656.556.149-.671 2.162-5.088-1.226.414-2.23.514.138-.16 1.793 1.414.379 1.206-5.186-1.145-.353.103-.385 3.15.752-.103.385-1.106-.158-1.194 5.143Zm-5.41-7.05c.359.371.556.837.643 1.366.088.528.025 1.108-.147 1.751a3.243 3.243 0 0 1-.853 1.47c-.384.402-.861.641-1.358.784-.54.13-1.034.09-1.591-.06-.428-.114-.877-.326-1.442-.615l-.245-.112.518-1.422.557.149-.104 1.074c.063.109.18.186.34.275.16.088.405.2.662.269.343.092.665.087 1.011-.004.303-.103.64-.334.872-.685.275-.34.487-.788.625-1.302.137-.514.221-.996.207-1.459a2.514 2.514 0 0 0-.324-1.189c-.188-.326-.497-.546-.925-.661-.3-.08-.514-.138-.697-.141a.866.866 0 0 0-.443.111l-.549.679-.491-.223.524-1.099c.129.034.311.037.537.052.226.015.408.018.591.021.183.003.44.072.697.14.557.15 1.037.416 1.385.831Zm-8.312 3.603.146-.374.825.175 1.391-3.989-.981.748-3.25 2.021-.058.214.694.324-.146.374-2.182-.768.147-.374.654.129 1.697-4.963-.651-.312.146-.374 2.224.78-.146.374-.74-.152-1.401 4.031.926-.716 3.347-2.041.081-.3-.737-.335.146-.374 2.225.78-.147.374-.696-.141-1.697 4.963.608.3-.146.374-2.279-.748Zm-8.605-3.178.745-2.096.545.192-.404 1.682 1.687.728 1.965-4.937-1.344-.636.146-.374 3.078 1.192-.146.374-.9-.241-1.9 4.863.8.443-.146.374-4.126-1.564Zm-1.144-1.041.542.375-.146.374-2.093-.928.147-.374.685.183.916-2.05-2.712-1.185-.916 2.049.585.387-.146.374-2.05-.917.146-.374.642.172 2.114-4.805-.596-.343.146-.374 2.05.916-.147.375-.673-.227-1.017 2.253 2.712 1.185 1.017-2.252-.64-.355.147-.374 2.135.939-.146.374-.631-.215-2.071 4.817Zm-7.983-3.103-.811-.401.77-6.129-.425-.298.189-.362 1.984.99-.189.363-.674-.227-.204 1.277 2.186 1.091.899-.953-.628-.398.189-.363 1.781.891-.189.363-.503-.181-4.375 4.337Zm.11-1.44-.152.74.526-.594 1.971-2.043-1.899-.967-.446 2.864Zm-3.405-4.769c.483-.605.921-1.038 1.312-1.301.218-.125.369-.176.563-.216.183.003.355.049.557.149.246.112.394.244.511.321l-.258.619c-.117-.077-.277-.166-.553-.332a.288.288 0 0 0-.257-.069.915.915 0 0 0-.303.103c-.695.365-1.542 1.469-2.572 3.259l-.344.597.808.583-.189.363-4.23-2.373.189-.363.748.292 2.562-4.593-.703-.463.189-.363 2.281 1.254-.189.363-.779-.347-2.551 4.55 1.482.81.366-.682c.401-.811.876-1.556 1.36-2.161Zm-12.641-3.02.231-.351.737.335 2.796-4.438-.605-.484.232-.351 2.075 1.337-.232.351-.694-.324-2.796 4.439.605.483-.232.351-2.117-1.348Zm5.774.721c-.585-.386-.933-.801-1.086-1.255-.154-.454-.071-.937.25-1.448.332-.554.778-.847 1.306-.935.529-.088 1.086.061 1.682.405.075.065.16.088.234.154.075.066.149.132.235.155.265.208.499.363.69.506l.979.63-.232.351-.651-.312-2.796 4.438.52.461-.232.351-2.044-1.283.232-.351.779.347 1.039-1.65-.905-.564Zm2.409-2.476a1.822 1.822 0 0 0-.394-.243c-.394-.244-.78-.347-1.125-.256-.346.091-.641.333-.938.759-.244.394-.335.736-.244 1.082.091.346.333.64.727.884l.745.475 1.514-2.395a.781.781 0 0 0-.285-.306Zm-11.086-.95.465.491-.231.351-1.838-1.364.231-.351.64.355 1.364-1.838-2.38-1.74-1.364 1.838.465.492-.232.351-1.795-1.353.231-.351.608.3 3.105-4.218-.477-.449.232-.351 1.838 1.365-.232.351-.596-.344-1.442 1.955 2.38 1.74 1.442-1.955-.55-.515.231-.351 1.88 1.376-.231.351-.597-.343-3.147 4.207Zm-7.138-4.714-.71-.603 2.066-5.828-.348-.414.263-.297 1.741 1.384-.275.34-.585-.386-.461 1.207 1.92 1.571 1.11-.713-.508-.503.263-.297 1.55 1.242-.264.296-.48-.266-5.282 3.267Zm.453-1.347-.28.705.631-.474 2.35-1.574-1.655-1.361-1.046 2.704Zm-5.458-3.62.59.709-.263.297-1.652-1.545 1.696-3.586.532-.959-.903.63-3.422 1.976-1.62-1.49.263-.297.764.572 3.073-4.272-.484-.589.263-.297 1.757 1.664-.263.297-.616-.44-2.278 3.016-.99 1.296 1.087-.627 4.05-2.266.402.383-1.733 3.897-.724 1.504 1.212-1.098 2.84-2.544-.57-.612.263-.297 1.62 1.49-.263.297-.574-.429-4.057 3.32Z"/>
    <path d="m73.693 275.574-.645-.677 2.76-5.504-.293-.446.306-.286 1.543 1.608-.306.285-.574-.429-.632 1.161 1.734 1.751 1.172-.604-.442-.578.306-.285 1.407 1.432-.306.286-.425-.298-5.605 2.584Zm.624-1.301-.366.682.694-.365 2.55-1.291-1.512-1.553-1.366 2.527Zm-3.422-2.478.357.554-.306.286-.739-.841c-.148-.132-.285-.306-.434-.438-.222-.197-.433-.437-.613-.623-.528-.601-.799-1.132-.812-1.595-.014-.463.23-.857.667-1.29.349-.274.686-.505 1.063-.542.389-.079.786-.019 1.16.127.374.146.713.421 1.03.781l.317.361c.105.12.168.228.21.24l1.388-1.235-.716-.927.306-.285 1.837 2.053-.306.285-.52-.46-3.889 3.549Zm1.056-3.252a1.72 1.72 0 0 0-1.002-.544c-.355-.049-.82.147-1.258.581-.36.316-.538.636-.532.959.005.323.181.691.498 1.052.106.12.254.251.402.383a.952.952 0 0 1 .18.186l2.228-1.974c-.106-.12-.274-.349-.516-.643Zm-.92-4.792a2.205 2.205 0 0 1-.261 1.491c-.224.491-.618.936-1.099 1.358-.48.422-1 .65-1.529.738-.529.088-1.077.079-1.568-.144a2.9 2.9 0 0 1-1.307-.948 8.109 8.109 0 0 1-.838-1.326l-.114-.26 1.209-.915.348.414-.68.828c.02.097.028.237.11.443.094.163.22.38.388.608.242.295.52.461.862.553.342.092.72.055 1.12-.067.4-.123.834-.374 1.249-.722.414-.348.732-.676.975-1.07s.39-.768.396-1.133c.006-.366-.128-.723-.359-1.06-.168-.229-.36-.372-.508-.504a.536.536 0 0 0-.417-.157l-.854.276-.294-.446 1.032-.596c.074.066.223.197.414.34.191.143.351.232.5.364.148.131.285.306.507.503.434.438.673.915.718 1.432Zm-13.736-8.363.338-.231.516.643 3.525-2.361-1.237-.01-3.801-.376-.175.137.322.683-.337.231-1.269-1.946.337-.231.465.492 4.363-2.917-.334-.641.338-.231 1.311 1.959-.337.231-.485-.589-3.58 2.392 1.152-.013 3.887.399.272-.157-.365-.695.337-.23 1.312 1.958-.337.231-.454-.535-4.362 2.917.29.629-.337.231-1.355-1.97Zm-2.985-4.794c-.18-.186-.316-.36-.465-.492-.148-.131-.2-.283-.305-.403-.344-.597-.53-1.106-.543-1.569-.014-.462.206-.771.64-1.022.38-.219.77-.299 1.155-.195.386.103.694.323.979.629-.25-.434-.362-.877-.258-1.263a1.59 1.59 0 0 1 .66-.924c.5-.325 1.03-.413 1.489-.244.46.169.905.564 1.355 1.281.157.272.314.543.385.792.071.248.154.454.205.606.051.151.071.248.06.291l-1.312.613-.22-.38.798-.751c-.005-.323-.139-.68-.401-1.071-.188-.326-.454-.535-.722-.561-.269-.026-.657.053-1.038.273-.283.199-.48.422-.603.71-.08.3-.001.689.261 1.08l.325.501-.391.262-.251-.434c-.126-.218-.274-.349-.465-.492a1.137 1.137 0 0 0-.631-.215c-.226-.015-.474.056-.746.213-.326.188-.48.422-.55.679-.025.269.034.56.223.886.125.217.262.392.422.48.148.132.277.166.374.146l.757-.256.294.446-1.067.725c-.085-.023-.19-.144-.413-.341ZM51 244.106l.235.66-.368.177-.553-1.021a6.341 6.341 0 0 0-.388-.609 4.836 4.836 0 0 1-.325-.5c-.365-.694-.496-1.234-.478-1.643.06-.397.28-.705.715-.956.369-.177.715-.268 1.057-.176.354.049.663.27.905.564-.24-.477-.35-.92-.247-1.306.104-.385.324-.693.747-.901.489-.283 1.006-.328 1.497-.104.502.18.967.672 1.426 1.53.094.163.177.368.27.531.178.369.292.629.366.695l.521.966-.368.177-.4-.566L51 244.106Zm1.35-2.301-.208-.423c-.188-.326-.4-.566-.699-.646-.3-.08-.591-.021-.96.156-.326.188-.566.399-.635.656-.069.257.022.603.23 1.026l.314.543.094.163 2.084-1.095s-.095-.162-.22-.38Zm2.547-1.796c-.282-.489-.567-.795-.898-.93-.332-.134-.666-.086-1.046.133-.38.22-.62.431-.658.742-.037.312.01.646.262 1.08.282.489.427.803.521.966l2.204-1.2c-.063-.108-.177-.368-.385-.791Zm-7.729-2.163-.416-.846 4.333-4.348-.143-.498.37-.176.977 2.006-.37.177-.387-.609-.972.887 1.06 2.212 1.294-.204-.225-.703.369-.176.852 1.789-.369.176-.294-.446-6.08.759Zm.975-1.07-.6.527.777-.159 2.814-.393-.946-1.952-2.045 1.977Zm2.349-6.028a2.785 2.785 0 0 1-.635 1.345c-.33.371-.841.739-1.416.998a3.283 3.283 0 0 1-1.682.284 3.064 3.064 0 0 1-1.465-.53c-.425-.298-.762-.755-.99-1.276a8.736 8.736 0 0 1-.427-1.491l-.06-.292 1.43-.535.228.52-.904.63c-.023.086-.026.269.014.463.04.195.11.443.225.703.145.315.345.598.664.775.32.178.663.269 1.083.244a4.17 4.17 0 0 0 1.426-.352c.465-.197.9-.448 1.26-.764.36-.317.58-.625.684-1.011.146-.374.11-.751-.067-1.12a2.51 2.51 0 0 0-.345-.597c-.106-.12-.211-.24-.382-.286l-.915-.015-.142-.498 1.178-.281c.062.109.156.272.293.446.137.174.285.306.38.469.094.163.219.38.333.64.228.52.316 1.049.232 1.531Zm-7.297-5.49a2.807 2.807 0 0 1-1.27-.57 2.438 2.438 0 0 1-.756-1.121c-.185-.508-.241-.982-.115-1.454.126-.471.326-.876.687-1.193.371-.359.806-.61 1.369-.827a4.9 4.9 0 0 1 1.78-.303c.537.052 1.04.233 1.422.519.382.286.687.689.884 1.155a2.94 2.94 0 0 1 .147 1.508c-.084.483-.327.877-.699 1.236-.371.36-.817.653-1.38.87l.484 1.277 2.294-.854-.17-.734.4-.123.791 2.186-.4.123-.333-.64-4.893 1.81.14.68-.4.123-.803-2.144.4-.122.333.64 2.143-.803-.484-1.277c-.54.131-1.1.164-1.57.038Zm-.513-.826c.557.149 1.268.064 2.146-.297.768-.299 1.323-.656 1.675-1.112.352-.457.435-.94.25-1.448-.185-.509-.567-.795-1.081-.933s-1.237-.01-2.103.309c-.769.299-1.324.655-1.664 1.069-.352.457-.424.897-.239 1.405.131.54.502.869 1.016 1.007Zm-.296-8.664c.22-.308.507-.691.902-1.136.263-.297.46-.519.603-.71a.811.811 0 0 0 .19-.363l-.006-.323.4-.122.327 1.006c.063.108-.037.311-.18.502-.155.234-.418.531-.79.891-.395.445-.712.773-.92 1.038-.21.266-.267.48-.216.631l.142.497 2.303-.714-.116-.765.4-.123.695 2.206-.4.123-.29-.629-5.007 1.551.096.668-.4.123-.663-2.152.4-.123.29.629 2.304-.714-.225-.703-2.835-.897.127.722-.4.123-.612-2 .4-.123.303.586 2.898 1.006c-.052-.151.072-.44.28-.705Zm1.348-4c-.17.459-.456.842-.859 1.147a4.564 4.564 0 0 1-1.529.738c-.637.15-1.197.184-1.722.089-.526-.095-.963-.349-1.333-.678-.371-.329-.622-.764-.753-1.304-.233-.843-.135-1.551.305-2.168.43-.573 1.093-.992 2.033-1.245.637-.151 1.24-.173 1.765-.078a2.888 2.888 0 0 1 1.376.69c.371.329.622.763.753 1.303.13.54.133 1.046-.036 1.506Zm-4.803.962c.545.192 1.245.15 2.13-.072.832-.19 1.43-.535 1.813-.937.383-.403.521-.917.379-1.414-.131-.54-.502-.869-1.047-1.061-.546-.192-1.288-.161-2.174.061-.832.19-1.43.535-1.812.937-.384.402-.51.874-.38 1.414.229.52.588.892 1.09 1.072Zm-1.891-5.281.043.7-.389.08-.25-1.123a9.879 9.879 0 0 0-.182-.692c-.071-.248-.154-.454-.162-.594-.16-.777-.15-1.326-.004-1.7.146-.374.484-.605.927-.716.388-.079.742-.03 1.074.104.32.178.573.43.75.798-.13-.54-.113-.948.076-1.311.189-.362.526-.593.957-.661.54-.131 1.066-.036 1.48.304.425.298.758.938.937 1.812.04.195.08.389.077.572.068.431.139.68.159.777l.261 1.08-.388.08-.237-.661-5.128 1.151Zm1.914-1.829-.111-.442c-.08-.389-.236-.661-.513-.827-.234-.154-.588-.203-.988-.081-.389.08-.66.237-.772.482-.112.246-.161.6-.062 1.085.04.195.08.389.162.595l.052.151 2.288-.488c.023-.086-.028-.237-.056-.475Zm2.9-1.059c-.13-.54-.307-.908-.615-1.129-.266-.209-.62-.258-1.063-.147-.431.068-.714.268-.826.513-.154.235-.172.643-.073 1.129.131.54.21.928.262 1.08l2.44-.54c.035-.129-.025-.42-.125-.906Zm-7.726-10.058.431-.068.225.703 5.177-.817-.019-.785.431-.068.38 2.351-.43.068-.183-.691-5.177.816.428 2.686 5.22-.805-.019-.786.431-.068.337 2.34-.43.068-.194-.649-5.177.817-.013.731-.431.068-.987-5.911Zm5.693-2.744c-.2.405-.572.765-1.006 1.016-.435.25-.986.424-1.643.478-.657.053-1.237-.01-1.74-.191a2.646 2.646 0 0 1-1.78-2.267c-.093-.852.102-1.58.606-2.088.503-.508 1.229-.818 2.22-.92.657-.053 1.237.01 1.74.191.502.18.927.478 1.275.893.306.403.502.869.547 1.386.065.614-.018 1.097-.219 1.502Zm-4.887.251c.522.278 1.199.322 2.136.251.851-.093 1.457-.298 1.926-.677.457-.337.67-.785.593-1.356-.045-.517-.35-.921-.873-1.198-.522-.278-1.242-.333-2.136-.251-.851.093-1.5.286-1.926.677-.458.337-.627.796-.55 1.368.033.56.339.963.83 1.186Zm2.225-6.933c.762.067 1.374.185 1.779.385.203.101.351.232.456.352.095.163.146.315.186.509.016.28.013.463-.021.591l-.669.096c-.008-.14-.005-.322-.01-.645-.02-.097-.04-.194-.114-.26a2.119 2.119 0 0 0-.266-.209c-.682-.366-2.067-.508-4.124-.371l-.657.054-.027.957-.42.025-.305-4.856.42-.026.159.778 5.233-.343.035-.817.42-.025.183 2.574-.42.025-.136-.863-5.222.3.09 1.722.742-.03c1.054.007 1.925.011 2.688.077Zm-3.682-4.934-.098.708-.42.025-.09-4.293 1.326-.15.014.463-.8.244-.014 2.108 2.357-.057-.041-1.388-.709-.098-.014-.463 1.937-.032.014.463-.723.128-.013 1.419 2.497-.065-.143-2.38-1.08-.427.138-.514 1.46.208.083 4.659-.42.025-.085-.711-5.176.128Zm-.097-7.004.029 1.431 1.748.33-.01.549-2.244-.189.12-5.247 2.26-.037-.01.548-1.768.261-.068 1.451 5.302.089.096-1.214.408.018-.075 3.193-.408-.017-.068-1.12-5.313-.046Zm3.347-6.495-.018.408c.094.163.243.295.52.461.234.154.553.332.959.532.405.201.682.367.885.467.202.1.308.22.285.306l-.073 1.128-.408-.017-.049-.335c-.02-.097-.094-.163-.2-.283-.159-.089-.35-.232-.658-.452-.363-.189-.628-.398-.862-.552a1.43 1.43 0 0 1-.465-.492 1.771 1.771 0 0 1-.693.87 1.886 1.886 0 0 1-1.123.25c-.677-.043-1.125-.255-1.376-.69-.25-.434-.327-1.006-.272-1.725.003-.183.05-.354.075-.623.026-.268.084-.483.075-.623l.096-1.213.408.017.042.7 5.233.346.121-.794.409.018-.16 2.482-.41-.018-.007-.828-2.256-.146-.078.806Zm-3.053-.772a2.68 2.68 0 0 0-.086.665c-.03.452.019.786.23 1.026.21.24.5.363.993.404.452.029.797-.062 1.08-.262.284-.199.375-.542.447-.982.03-.451.055-.719.016-.914l-2.568-.183-.112.246Zm.426-4.844-.11 1.439 1.713.46-.053.537-2.241-.372.571-5.218 2.257.146-.052.537-1.766.078-.207 1.459 5.261.583.224-1.179.397.06-.355 3.211-.397-.061.018-1.097-5.26-.583Zm6.366-6.282c-.33.37-.775.664-1.272.806-.498.143-1.1.165-1.711.047-.611-.118-1.157-.31-1.57-.65-.414-.341-.762-.755-.947-1.264a2.941 2.941 0 0 1-.124-1.594c.072-.44.21-.954.444-1.488l.112-.245 1.48.304-.107.568-1.108.025a1.785 1.785 0 0 0-.244.394c-.088.16-.157.417-.183.685a1.76 1.76 0 0 0 .144 1.003c.145.314.4.566.793.809.351.232.822.358 1.39.465.526.095.989.081 1.463.024.432-.068.843-.233 1.138-.475.294-.243.472-.563.544-1.002.037-.312.052-.537.043-.677a1.05 1.05 0 0 0-.153-.455l-.745-.475.137-.514 1.134.396c-.035.128.017.28.045.517.04.194.025.42.065.614s-.018.409-.055.72c-.15.557-.373 1.048-.713 1.462Zm-4.612-7.801.397.06-.078.806 4.126.876-.867-.875-2.413-2.988-.215-.058-.237.717-.397-.06.468-2.262.397.06-.044.677 5.123 1.097.227-.673.385.103-.48 2.305-.385-.104.067-.762-4.212-.899.835.82 2.445 3.043.3.08.25-.76.396.061-.48 2.304-.397-.06.055-.72-5.123-1.097-.215.631-.397-.061.469-2.261Zm2.063-8.904 2.165.488-.15.557-1.696-.18-.524 1.788 5.162 1.292.465-1.391.385.103-.806 3.181-.386-.103.156-.922-5.078-1.269-.315.834-.385-.104 1.008-4.274Zm.893-1.276-.3.608-.386-.103.683-2.205.385.104-.098.708 2.162.671.855-2.847-2.162-.671-.3.608-.386-.103.67-2.162.386.103-.086.666 5.008 1.526.258-.62.386.103-.671 2.162-.386-.103.141-.697-2.333-.717-.855 2.847 2.333.717.27-.663.385.104-.682 2.204-.386-.103.13-.654-5.02-1.483Zm2.044-8.313.327-.876 6.153-.005.266-.479.374.146-.745 2.096-.374-.146.14-.697-1.322-.033-.803 2.31 1.03.781.313-.651.374.146-.645 1.893-.374-.146.095-.525-4.809-3.814Zm1.474-.018-.763-.067.66.452 2.252 1.706.722-2.011-2.871-.08Zm4.338-4.025c.67.409 1.17.772 1.444 1.121.137.174.22.38.27.532.04.194-.006.365-.052.537a3.83 3.83 0 0 1-.277.522l-.631-.215c.077-.117.134-.331.246-.577.023-.085.058-.214.026-.268-.02-.097-.083-.206-.145-.315-.474-.631-1.655-1.361-3.568-2.103l-.62-.258-.455.842-.374-.146 1.808-4.52.374.146-.207.771 4.851 1.943.378-.725.374.146-.965 2.404-.374-.146.23-.857-4.852-1.942-.65 1.57.705.281c.97.489 1.793.847 2.464 1.257Zm1.357-7.12c.3-.608.641-1.022 1.107-1.219.466-.196.917-.167 1.451.068.565.289.968.672 1.098 1.212.143.497.079 1.077-.222 1.685-.023.086-.088.16-.111.246-.066.074-.09.16-.166.277a7.174 7.174 0 0 0-.39.768l-.458 1.025-.363-.189.227-.674-4.77-2.243-.387.586-.363-.189.994-2.167.363.189-.261.802 1.75.836.501-1.013Zm.001-5.83.363.189-.25.759 4.728 2.231.41-.671.362.189-1.06 2.241-.362-.189.25-.759-4.728-2.231-.41.671-.362-.189 1.06-2.241Zm2.782 7.953c.065-.075.111-.246.2-.406.2-.405.218-.814.084-1.171-.134-.357-.43-.62-.879-.832-.405-.201-.813-.218-1.116-.116-.315.146-.566.4-.767.805l-.346.779 2.572 1.195c.109-.063.186-.18.252-.254Zm-.502-11.152-.417.53-.363-.189 1.131-1.992.363.189-.27.662 2.004 1.088 1.432-2.6-2.004-1.088-.418.531-.363-.189 1.077-1.962.362.189-.215.631 4.593 2.562.418-.53.363.189-1.088 2.004-.363-.189.27-.663-2.164-1.176-1.432 2.6 2.164 1.177.44-.617.363.189-1.142 2.036-.362-.189.257-.62-4.636-2.573Zm3.798-7.66.486-.788 6.023 1.338.34-.413.352.232-1.194 1.883-.351-.231.312-.651-1.285-.345-1.293 2.087.832 1.004.472-.563.351.232-1.05 1.693-.351-.232.223-.491-3.867-4.755Zm1.393.282-.728-.196.54.558 1.856 2.15 1.128-1.809-2.796-.703Zm2.918-5.922-.604.711-.35-.231 1.31-1.807 3.755 1.236 1.036.415-.739-.84-2.41-3.171 1.31-1.807.352.232-.444.8 4.659 2.487.515-.55.35.231-1.453 1.998-.35-.232.366-.682-3.303-1.895-1.439-.799.79.992 2.767 3.726-.31.468-4.077-1.23-1.605-.522 1.23 1.064 2.874 2.468.537-.636.352.232-1.257 1.775-.35-.232.354-.64-3.866-3.56Z"/>
    <path d="m63.69 86.918.56-.722 5.84 2.023.371-.36.34.276-1.385 1.74-.34-.274.387-.585-1.208-.462-1.527 1.932.724 1.067.503-.508.34.274-1.242 1.55-.34-.275.267-.48-3.29-5.196Zm1.36.41-.706-.281.473.632 1.574 2.35 1.32-1.667-2.662-1.034Zm2.04-3.677-.523.41-.34-.274.735-.859a2.68 2.68 0 0 0 .352-.456c.198-.223.352-.457.55-.68.526-.593 1.037-.96 1.469-1.029.431-.068.891.101 1.336.496a2.05 2.05 0 0 1 .706 2.163c-.103.386-.304.79-.621 1.12-.12.105-.21.264-.33.37-.12.105-.185.18-.197.223l1.421 1.207.81-.793.297.263-1.8 2.088-.296-.263.386-.585-3.955-3.4Zm3.367.627c.275-.34.42-.714.384-1.09-.037-.378-.256-.758-.733-1.207-.37-.33-.702-.464-1.036-.416-.334.049-.617.248-1 .65-.132.149-.22.309-.353.457-.077.117-.131.148-.142.191l2.28 1.943c.15-.052.337-.231.6-.528Zm4.673-1.503c-.498.142-.992.102-1.506-.036a4.063 4.063 0 0 1-1.459-.896c-.434-.437-.77-.895-.944-1.446-.185-.509-.175-1.057-.08-1.583.137-.514.36-1.005.787-1.396a6.554 6.554 0 0 1 1.232-1l.229-.17 1.035 1.105-.383.402-.948-.575c-.097.02-.248.07-.411.165-.163.094-.349.274-.535.454a1.542 1.542 0 0 0-.424.896c-.049.354.042.7.207 1.111.177.369.482.772.885 1.155.36.372.796.627 1.201.827.406.2.803.261 1.18.225.377-.037.703-.225 1.009-.51.197-.223.34-.414.417-.531a.755.755 0 0 0 .115-.429l-.373-.834.414-.348.748.98c-.066.075-.155.235-.266.48-.1.203-.19.363-.278.522-.089.16-.232.352-.43.574-.48.422-.969.704-1.423.858Zm4.988-13.308.286.306-.538.636 2.83 3.146-.173-1.24-.172-3.81-.137-.175-.62.43-.286-.306 1.747-1.551.285.305-.417.531 3.494 3.92.566-.399.286.306-1.748 1.552-.285-.306.515-.55-2.861-3.2.195 1.154.15 3.897.211.24.632-.474.285.306-1.758 1.595-.286-.306.46-.52-3.494-3.92-.554.357-.285-.306 1.672-1.618Zm4.364-3.605c.143-.191.286-.383.418-.531a3.84 3.84 0 0 1 .372-.36c.534-.453 1.054-.68 1.486-.749.431-.068.794.121 1.11.481.274.35.408.706.348 1.103a2.11 2.11 0 0 1-.47 1.068c.403-.305.815-.47 1.212-.41.408.018.728.195 1.002.544.379.469.521.966.438 1.449-.084.483-.447.982-1.09 1.498-.24.211-.512.368-.73.493a3.242 3.242 0 0 1-.574.26c-.151.051-.249.07-.26.114l-.818-1.23.349-.273.87.692c.291-.06.66-.236 1.02-.553.295-.242.46-.52.444-.8-.005-.322-.108-.625-.424-.985a1.117 1.117 0 0 0-.788-.487c-.312-.037-.669.096-1.072.402l-.469.379-.316-.36.36-.317a1.56 1.56 0 0 0 .417-.53c.1-.203.158-.418.13-.655-.028-.237-.154-.454-.322-.683-.243-.294-.477-.449-.757-.432-.28.017-.54.13-.823.33-.186.18-.317.329-.449.477a.415.415 0 0 0-.103.385l.365.695-.415.348-.887-.972c.109-.063.24-.211.426-.391Zm5.944-4.192-.64.333-.231-.337.915-.673c.162-.094.348-.274.577-.442a2.8 2.8 0 0 1 .469-.38c.632-.473 1.152-.7 1.56-.683.409.017.772.206 1.045.555.231.338.322.683.316 1.049-.006.366-.183.685-.447.982a1.802 1.802 0 0 1 1.266-.441c.409.017.76.25.99.587.337.457.437.943.342 1.468-.095.526-.556 1.045-1.308 1.624a3.985 3.985 0 0 1-.5.325c-.38.22-.566.4-.663.42l-.915.672-.23-.337.491-.465-3.037-4.257Zm2.435 1.02.392-.263c.337-.23.503-.508.53-.776.025-.268-.066-.614-.297-.952-.23-.337-.465-.491-.733-.517-.269-.026-.626.107-.975.381-.174.137-.337.231-.469.38l-.12.105 1.378 1.884c-.043-.011.12-.105.294-.242Zm2.157 2.23c.457-.336.732-.676.781-1.03.05-.354-.042-.7-.273-1.037-.274-.349-.539-.558-.807-.584-.312-.037-.626.108-1.03.413-.457.337-.74.536-.86.642l1.472 2.047c.097-.02.325-.188.717-.45Zm1.069-7.931.783-.525 4.929 3.708.477-.24.231.338-1.849 1.25-.231-.338.534-.454-1.019-.824-2.066 1.375.355 1.243.64-.334.231.338-1.675 1.112-.23-.338.371-.36-1.481-5.951Zm1.201.827-.605-.483.257.757.782 2.734 1.784-1.174-2.218-1.834Zm6.269 1.45c-.506.002-.966-.167-1.445-.433-.425-.297-.816-.724-1.173-1.278a3.935 3.935 0 0 1-.532-1.612c-.045-.517.104-1.074.359-1.51.266-.48.638-.84 1.138-1.165.38-.22.846-.416 1.452-.62l.26-.115.698 1.335-.488.282-.751-.797c-.085-.023-.237.028-.431.068-.194.04-.412.165-.629.29a1.539 1.539 0 0 0-.658.742 2.023 2.023 0 0 0-.115 1.117c.068.431.264.897.558 1.343.294.446.599.85.938 1.124.34.275.703.463 1.088.567.386.103.731.012 1.111-.207.272-.157.446-.294.524-.411a.852.852 0 0 0 .243-.394l-.125-.906.478-.24.432 1.127a1.286 1.286 0 0 0-.371.36c-.132.148-.263.296-.438.433-.131.148-.349.274-.566.4a2.635 2.635 0 0 1-1.557.5Zm4.394-8.004c.041-.495.167-.966.41-1.36.244-.393.55-.679.984-.93a2.501 2.501 0 0 1 1.426-.352c.451.029.911.198 1.282.527s.719.744 1.044 1.244a3.96 3.96 0 0 1 .541 1.752c.033.56-.05 1.042-.305 1.479a2.684 2.684 0 0 1-1.007 1.016 2.457 2.457 0 0 1-1.468.34 2.452 2.452 0 0 1-1.294-.484 3.654 3.654 0 0 1-1.044-1.244l-1.183.647 1.168 2.15.672-.28.177.37-2.041 1.105-.177-.368.566-.4-2.482-4.613-.66.236-.22-.38 1.987-1.074.219.38-.566.4 1.075 1.986 1.226-.636a3.147 3.147 0 0 1-.33-1.511Zm.795-.568c-.063.58.119 1.271.589 2.086.408.706.818 1.23 1.341 1.507.522.278.973.307 1.505.036.477-.24.732-.676.741-1.224.009-.549-.172-1.24-.6-2.043-.408-.706-.818-1.23-1.298-1.496-.479-.266-.974-.307-1.451-.067-.477.239-.763.621-.827 1.201Zm8.545-1.566c.32.177.714.42 1.236.698.351.232.585.386.788.487.203.1.288.123.386.103l.334-.048.177.368-.944.436c-.108.063-.28.017-.525-.094-.246-.112-.554-.333-.979-.63a11.339 11.339 0 0 0-1.128-.761c-.276-.166-.502-.18-.653-.13l-.478.24 1.029 2.158.703-.225.176.369-2.103.997-.177-.369.598-.345-2.223-4.727-.648.193-.177-.368 2.049-.966.177.368-.609.388 1.017 2.2.64-.332.512-2.94-.703.226-.176-.37 1.886-.87.177.368-.555.356-.621 3.002c.183.003.483.083.814.218Zm4.15.79c-.483-.083-.877-.326-1.236-.698a4.388 4.388 0 0 1-.944-1.447c-.248-.617-.379-1.157-.326-1.694.052-.537.178-1.008.475-1.434a2.66 2.66 0 0 1 1.167-.926c.823-.33 1.511-.33 2.162-.018s1.168.956 1.529 1.833c.248.617.367 1.2.315 1.737-.052.537-.19 1.051-.487 1.476-.298.426-.701.73-1.167.927-.531.271-1.006.328-1.488.244Zm-1.623-4.566c-.106.568.033 1.248.352 2.114.342.78.741 1.346 1.209 1.655.457.352.951.393 1.471.165.508-.185.806-.61.912-1.179.107-.568-.021-1.291-.394-2.126-.342-.78-.741-1.346-1.209-1.655-.468-.309-.951-.392-1.471-.165-.477.24-.764.622-.87 1.19Zm4.939-2.672-.68.14-.122-.4 1.072-.402c.194-.04.411-.165.671-.279.26-.114.423-.208.563-.216.715-.268 1.286-.344 1.672-.241.385.103.682.366.836.82.133.358.17.735.035 1.066-.134.331-.355.64-.68.828.508-.185.928-.21 1.314-.107.385.103.67.41.824.863.185.51.176 1.058-.079 1.494-.266.48-.832.88-1.698 1.198a2.986 2.986 0 0 1-.551.174c-.401.122-.661.236-.758.256l-1.071.401-.134-.357.64-.333-1.854-4.904Zm2.081 1.66.454-.154c.357-.134.597-.345.721-.633.123-.288.118-.611-.059-.98-.134-.357-.345-.597-.591-.709-.245-.112-.622-.075-1.077.079-.205.082-.368.176-.574.259l-.163.094.834 2.198c.055-.032.206-.083.455-.154Zm1.428 2.724c.508-.185.857-.459 1.035-.779.177-.32.172-.642.018-1.097-.165-.411-.376-.651-.622-.763-.288-.123-.665-.086-1.131.11-.552.174-.866.319-1.017.37l.885 2.35c.117.076.42-.026.832-.191Zm8.897-9.047.123.4-.641.333 1.508 4.995.777-.159.123.4-2.249.683-.122-.4.628-.29-1.539-5.05-2.595.774 1.54 5.05.777-.16.122.4-2.249.683-.122-.4.629-.29-1.508-4.995-.723.127-.122-.4 5.643-1.701Zm3.516 5.211a2.501 2.501 0 0 1-1.148-.858c-.305-.403-.533-.923-.683-1.56-.151-.637-.185-1.197-.078-1.766.095-.525.349-.962.678-1.333.329-.37.764-.622 1.304-.752.843-.234 1.551-.136 2.168.305.573.43.992 1.092 1.234 2.075.151.638.173 1.24.078 1.766a2.467 2.467 0 0 1-.733 1.364 3.06 3.06 0 0 1-1.304.753c-.594.162-1.057.176-1.516.006Zm-.963-4.802c-.192.545-.15 1.245.072 2.13.19.832.535 1.43.937 1.813.403.383.917.52 1.414.379.54-.131.857-.46 1.061-1.047.192-.546.161-1.289-.06-2.174-.191-.832-.536-1.43-.938-1.813-.402-.383-.873-.509-1.413-.378-.521.228-.892.587-1.073 1.09Zm7.24 1.251c.062.797-.002 1.377-.171 1.836a1.046 1.046 0 0 1-.798.75c-.248.072-.474.057-.571.077l-.193-.649c.14-.008.334-.048.625-.107.097-.02.195-.04.26-.114a.635.635 0 0 0 .166-.277c.293-.748.197-2.105-.22-4.145l-.151-.638-.991.102-.08-.388 4.76-.974.08.388-.758.256 1.054 5.149.851-.093.08.388-2.526.517-.079-.389.854-.276-1.054-5.148-1.651.338.171.734c.144 1.003.269 1.909.342 2.663Zm4.333-4.348-.689-.001-.068-.432 4.229-.703.344 1.286-.475.056-.384-.791-2.049.277.38 2.352 1.403-.267.001-.689.474-.056.312 1.92-.474.056-.225-.703-1.391.224.388 2.492 2.331-.477.256-1.126.526.095.018 1.474-4.606.74-.079-.388.691-.182-.913-5.157Zm6.945-1.077-1.434.212-.062 1.774-.571.076-.135-2.24 5.217-.622.371 2.212-.517.045-.498-1.74-1.454.115.654 5.271 1.205-.044.026.42-3.18.387-.025-.42 1.068-.218-.665-5.228Zm6.887 2.396-.42.025a1.67 1.67 0 0 0-.375.542 7.53 7.53 0 0 0-.372 1.048c-.158.417-.238.717-.338.92-.101.202-.178.32-.275.34l-1.131.11-.026-.42.303-.103c.098-.02.163-.094.252-.254s.2-.405.335-.737c.146-.374.324-.693.435-.939.155-.234.298-.425.461-.52a1.486 1.486 0 0 1-.959-.532 1.811 1.811 0 0 1-.402-1.071c-.053-.657.127-1.16.476-1.434.403-.305.955-.478 1.698-.509.14-.008.377-.037.645-.01.28-.017.463-.014.603-.023l1.217-.087.025.42-.68.14.408 5.158.774.024.025.42-2.488.206-.025-.42.82-.148-.177-2.25-.809.104Zm.344-3.168c-.269-.026-.463.014-.689 0-.419.025-.777.159-.963.338-.24.212-.332.554-.275 1.028.014.463.202.789.413 1.03.265.208.608.3 1.028.275.463-.014.754-.074.894-.082l-.183-2.574-.225-.015Zm4.833-.22-1.454.116-.245 1.77-.56.034.06-2.28 5.242-.201.177 2.25-.505.003-.358-1.749-1.474.018.179 5.328 1.183.041.025.42-3.197.108-.025-.42 1.089-.121-.137-5.316Zm7.138 5.402a2.956 2.956 0 0 1-.982-1.135c-.239-.477-.315-1.049-.326-1.694.032-.635.181-1.191.447-1.671.267-.48.638-.84 1.116-1.078.477-.24.974-.382 1.566-.361.408.017.945.07 1.545.23l.257.069-.134 1.525-.548-.01-.176-1.056a.952.952 0 0 0-.405-.2c-.214-.058-.44-.073-.709-.099a1.538 1.538 0 0 0-.951.296c-.283.2-.503.508-.692.87a4.222 4.222 0 0 0-.293 1.437c-.01.549.047 1.023.169 1.423.123.4.342.78.639 1.043.297.263.628.398 1.036.416.323-.006.506-.003.7-.042.152-.052.303-.103.423-.208l.358-.823.526.095-.225 1.18c-.14.008-.291.06-.528.088-.194.04-.4.122-.583.119-.194.04-.42.025-.7.042-.591-.02-1.105-.158-1.53-.456Zm7.033-5.69-.017.408-.84.05-.308 4.233.769-.987 2.629-2.785.014-.225-.739-.153.017-.408 2.3.157-.018.408-.657.054-.346 5.233.697.14-.018.409-2.342-.169.018-.408.742-.03.277-4.288-.704.913-2.683 2.816-.037.312.794.12-.018.41-2.385-.18.018-.41.7-.041.346-5.233-.654-.13.017-.408 2.428.192Zm9.14.842-.176 2.202-.58-.063-.047-1.712-1.856-.267-.595 5.303 1.448.25-.06.398-3.296-.378.06-.397.914.015.56-5.175-.856-.23.06-.397 4.424.451Zm1.419.702-.631-.215.06-.397 2.254.328-.061.397-.731-.012-.328 2.253 2.907.458.328-2.254-.673-.226.06-.397 2.253.328-.06.397h-.688l-.786 5.16.642.172-.06.397-2.254-.328.061-.397h.688l.374-2.424-2.907-.458-.374 2.425.728.195-.061.397-2.296-.34.061-.397.688.001.806-5.063Zm8.483.895.911.198.844 6.103.502.18-.06.397-2.176-.445.06-.397.72.055-.15-1.325-2.39-.503-.633 1.162.674.226-.061.397-1.962-.388.061-.397.548.01 3.112-5.273Zm.267 1.403-.074-.754-.323.694-1.355 2.483 2.091.423-.339-2.846Zm4.551 3.745c-.281.705-.613 1.259-.93 1.587-.186.18-.349.273-.501.325-.151.05-.334.048-.548-.01-.257-.069-.471-.126-.588-.203l.086-.666.6.161a.63.63 0 0 0 .28-.017c.097-.02.163-.094.283-.2.558-.538 1.128-1.809 1.624-3.834l.172-.642-.899-.241.115-.428 4.734 1.176-.115.429-.805-.078-1.269 5.077.791.304-.103.385-2.539-.634.104-.386.879.144 1.269-5.077-1.682-.405-.195.728a16.376 16.376 0 0 1-.763 2.505Zm7.244.379c.631.215 1.099.525 1.362.916.262.392.307.909.115 1.454-.215.631-.555 1.045-1.021 1.242-.52.228-1.069.218-1.711.046l-.257-.069c-.086-.023-.172-.046-.289-.123-.288-.123-.588-.203-.833-.315l-1.103-.341.104-.386.696.141 1.526-5.008-.608-.301.103-.386 2.29.706-.103.385-.837-.132-.59 1.862 1.156.31Zm-1.729 3.026c.086.023.246.112.417.158.471.126.837.132 1.163-.056.326-.188.546-.496.672-.967s.121-.794-.067-1.12c-.157-.272-.465-.492-.925-.661l-.814-.218-.82 2.718c.171.046.288.123.374.146Zm7.497-3.821-.103.385-.794-.12-1.526 5.008.737.335-.103.385-2.376-.728.103-.386.783.164 1.525-5.008-.736-.335.103-.386 2.387.686Zm3.466 1.801-.597-.344.146-.374 2.127.8-.146.374-.697-.141-.799 2.127 2.789 1.069.8-2.127-.597-.344.146-.374 2.128.8-.147.374-.654-.13-1.868 4.917.608.3-.146.375-2.127-.8.146-.374.685.184.889-2.287-2.79-1.069-.888 2.287.639.355-.146.374-2.158-.854.146-.374.685.184 1.826-4.928Zm8.109 2.632.865.37-.459 6.166.425.297-.146.374-2.05-.916.146-.374.674.226.173-1.33-2.264-.974-.855.964.639.355-.146.374-1.847-.816.146-.374.514.137 4.185-4.48Zm-.025 1.462.11-.75-.484.604-1.853 2.12 1.975.851.252-2.825Zm6.205 2.03-.776-.53.189-.362 1.972 1.034-.679 3.904-.244 1.082.724-.816 2.78-2.836 1.972 1.033-.189.363-.876-.327-1.826 4.928.617.441-.189.363-2.133-1.123.189-.362.706.28 1.404-3.526.596-1.538-.887.91-3.26 3.258-.48-.266.674-4.227.296-1.62-.873 1.373-2.055 3.214.702.464-.189.363-1.93-1.023.189-.362.663.27 2.913-4.362Z"/>
    <path d="m247.826 52.152.788.486-1.167 6.069.425.298-.189.362-1.906-1.108.189-.362.662.27.29-1.255-2.098-1.25-.972.887.573.43-.189.362-1.704-1.008.189-.362.503.18 4.606-4Zm-.196 1.416.195-.728-.557.54-2.119 1.91 1.864 1.097.617-2.819Zm3.923 1.465-.476-.45.231-.35.937.618c.159.088.351.232.51.32.277.166.523.278.757.432.659.453 1.093.89 1.204 1.333.111.443.027.925-.282 1.394a2.058 2.058 0 0 1-.906.813 1.9 1.9 0 0 1-1.143.152 3.273 3.273 0 0 1-1.208-.46 2.146 2.146 0 0 1-.425-.298c-.16-.09-.234-.155-.266-.21l-1.015 1.565.913.704-.232.35-2.309-1.49.232-.351.651.312 2.827-4.384Zm-.144 3.45c.394.243.737.335 1.125.256.389-.08.737-.354 1.07-.907.243-.394.346-.78.244-1.083-.103-.303-.345-.597-.771-.895a10.96 10.96 0 0 0-.522-.277.74.74 0 0 0-.203-.1l-1.634 2.5c.149.131.34.274.691.506Zm2.132 4.382a2.638 2.638 0 0 1-.159-1.466c.084-.483.33-1.06.705-1.602.363-.499.79-.89 1.267-1.13a2.81 2.81 0 0 1 1.543-.275 2.847 2.847 0 0 1 1.496.585c.351.232.753.615 1.144 1.041l.223.197-.956 1.168-.468-.31.447-.981c-.02-.098-.126-.218-.22-.38-.094-.164-.328-.318-.562-.473-.308-.22-.608-.3-.974-.306-.365-.007-.722.127-1.06.358-.337.231-.709.59-1.006 1.016-.298.425-.51.873-.668 1.29-.114.429-.175.825-.052 1.226.122.4.322.683.673.914.234.155.425.298.596.344.171.046.3.08.44.072l.772-.482.402.383-.875.868c-.117-.078-.288-.123-.491-.224-.214-.057-.374-.146-.588-.203-.16-.089-.363-.19-.597-.344-.445-.394-.836-.82-1.032-1.286Zm12.286 1.777-.275.34-.702-.464-2.669 3.279 1.2-.367 3.735-.744.143-.192-.497-.546.275-.34 1.803 1.494-.274.34-.597-.344-3.338 4.064.508.503-.264.297-1.803-1.493.263-.297.628.398 2.723-3.31-1.103.347-3.831.763-.197.223.539.558-.263.296-1.847-1.504.263-.297.586.386 3.338-4.063-.465-.492.275-.34 1.846 1.505Zm4.272 3.761c.246.112.394.243.554.332.16.089.308.22.425.298.519.46.856.918.967 1.36.111.444.007.829-.31 1.157-.318.328-.643.516-1.052.499a1.713 1.713 0 0 1-1.113-.299c.359.372.578.752.615 1.13.037.377-.109.75-.372 1.047-.395.445-.872.685-1.367.644-.505.002-1.028-.275-1.664-.813-.265-.209-.434-.438-.602-.666-.168-.229-.262-.392-.368-.512a26.458 26.458 0 0 0-.157-.272l1.093-.992.297.263-.533.959c.103.303.345.597.673.915.297.263.542.375.877.326.291-.06.606-.204.88-.544.252-.254.332-.554.37-.865.037-.311-.194-.649-.565-.978l-.445-.394.318-.329.371.33c.191.142.382.285.596.343.214.057.44.072.689 0 .248-.07.423-.207.62-.43.263-.297.375-.542.315-.834-.017-.28-.185-.508-.482-.771a1.736 1.736 0 0 0-.542-.375.556.556 0 0 0-.397-.06l-.632.473-.414-.34.824-1.02c.137.175.297.264.531.418Zm5.021 5.247-.399-.565.306-.285.793.809c.148.131.328.317.55.515l.446.394c.539.558.875 1.016.901 1.435.079.389-.067.763-.385 1.091-.306.285-.62.43-.954.479-.334.048-.72-.055-1.071-.287.402.383.622.763.647 1.183.025.42-.109.751-.427 1.08a1.718 1.718 0 0 1-1.386.546c-.537-.052-1.134-.395-1.79-1.03-.148-.132-.285-.306-.391-.426a11.933 11.933 0 0 0-.539-.558l-.793-.81.306-.285.574.43 3.612-3.715Zm-2.494 5.025c.402.383.753.615 1.119.621.366.007.68-.139.986-.424.306-.285.441-.617.424-.896-.017-.28-.205-.606-.565-.978a15.84 15.84 0 0 1-.761-.755l-1.762 1.778c.02.097.242.294.559.654Zm1.902-2.474.329.317c.296.264.573.43.853.413.28-.017.594-.162.858-.46.263-.296.417-.53.4-.81-.016-.28-.204-.606-.533-.923a6.812 6.812 0 0 0-.488-.406l-.148-.132-1.642 1.672c.086.023.192.143.371.329Zm6.136 2.287.645.677-2.877 5.427.293.446-.306.285-1.489-1.638.306-.285.519.46.676-1.15-1.669-1.825-1.203.55.442.578-.306.285-1.352-1.464.306-.285.414.34 5.601-2.401Zm-.667 1.29.409-.67-.694.364-2.57 1.194 1.458 1.584 1.397-2.472Zm-.485 6.435c-.088-.528-.004-1.01.219-1.502.224-.49.576-.948 1.099-1.358.48-.422 1-.65 1.54-.781a2.728 2.728 0 0 1 1.58.102c.502.18.928.478 1.307.947.274.349.567.795.838 1.326l.114.26-1.209.916-.348-.415.692-.87c-.02-.097-.028-.237-.122-.4a2.804 2.804 0 0 0-.4-.566 1.593 1.593 0 0 0-.862-.553c-.342-.091-.719-.055-1.119.068-.4.122-.835.373-1.249.72a5.098 5.098 0 0 0-.976 1.07c-.243.395-.346.78-.353 1.146-.006.365.128.723.402 1.072.211.24.359.371.519.46.16.089.277.166.417.158l.855-.276.293.446-1.043.638a6.28 6.28 0 0 0-.414-.34 2.208 2.208 0 0 1-.499-.364c-.149-.131-.34-.274-.508-.503a2.331 2.331 0 0 1-.773-1.4Zm8.575 3.124a3.02 3.02 0 0 1 1.373.184c.417.158.788.487 1.062.836.337.457.502.869.558 1.343.014.463-.058.903-.313 1.34a3.84 3.84 0 0 1-1.107 1.218c-.523.41-1.097.67-1.637.8-.54.131-1.034.09-1.537-.09-.502-.18-.842-.455-1.147-.858-.337-.458-.533-.924-.59-1.398-.056-.474.058-.902.27-1.35a4.442 4.442 0 0 1 1.064-1.23l-.81-1.09-1.961 1.495.376.651-.337.231-1.389-1.84.337-.232.508.504 4.152-3.157-.345-.598.349-.274 1.357 1.787-.349.274-.508-.503-1.786 1.357.809 1.09a9.009 9.009 0 0 1 1.601-.49Zm.73.7c-.56.034-1.231.313-1.983.892-.644.517-1.093.993-1.285 1.539-.192.545-.135 1.02.201 1.477.348.414.754.615 1.325.538.56-.033 1.2-.367 1.941-.903.643-.516 1.092-.993 1.284-1.538.192-.545.136-1.02-.17-1.423-.305-.403-.753-.615-1.313-.581Zm2.853 8.203c-.092.342-.304.79-.539 1.324-.189.363-.269.662-.358.822-.046.172-.092.343-.06.397l.102.303-.337.231-.599-.849c-.063-.109-.06-.291.052-.537.112-.245.258-.62.47-1.068.277-.522.435-.939.558-1.227a.939.939 0 0 0 .044-.677l-.294-.446-1.97 1.354.322.683-.337.231-1.28-1.904.337-.23.454.534 4.319-2.928-.29-.63.337-.23 1.249 1.85-.337.23-.454-.534-2.012 1.343.387.609 2.968.06-.333-.64.337-.23 1.143 1.729-.337.23-.465-.491-3.042-.127c.083.206.057.475-.035.817Zm-.169 4.224c.029-.451.156-.923.496-1.336a3.934 3.934 0 0 1 1.267-1.13 3.556 3.556 0 0 1 1.623-.575c.56-.034 1.043.05 1.491.262.448.212.819.54 1.101 1.029.439.761.578 1.441.34 2.157-.226.674-.752 1.268-1.579 1.781a3.985 3.985 0 0 1-1.677.606 3.102 3.102 0 0 1-1.534-.273c-.448-.212-.807-.584-1.101-1.03a3.043 3.043 0 0 1-.427-1.491Zm4.299-2.337c-.548-.01-1.251.215-2.023.697-.718.451-1.209.916-1.444 1.449-.278.523-.221.997.061 1.486.293.446.73.701 1.279.71.591.021 1.251-.216 2.023-.698.717-.45 1.209-.915 1.444-1.449.224-.491.221-.997-.061-1.485-.294-.446-.688-.69-1.279-.71Zm3.377 4.531-.236-.66.38-.22.565.978c.094.163.219.38.387.609.169.229.263.392.325.5.365.695.55 1.203.478 1.643-.072.44-.28.705-.672.968a1.713 1.713 0 0 1-1.069.218c-.354-.049-.674-.226-.947-.575.282.489.361.878.289 1.317-.06.397-.323.694-.703.914a1.744 1.744 0 0 1-1.509.146c-.502-.18-.967-.672-1.438-1.487-.094-.163-.176-.368-.27-.531-.22-.381-.334-.641-.365-.695l-.565-.978.369-.176.399.566 4.582-2.537Zm-3.812 4.12c.282.489.567.795.91.887.342.092.677.044 1.057-.176.38-.219.589-.485.658-.742.069-.257-.011-.645-.262-1.08l-.533-.923-2.204 1.2c.04.194.154.454.374.834Zm2.516-1.851.208.423c.188.326.453.535.71.604.3.08.591.021.972-.199.325-.188.523-.41.592-.667.069-.257-.022-.603-.273-1.038-.094-.163-.231-.337-.314-.543l-.094-.163-2.052 1.149.251.434Zm7.858 9.222-.369.177-.388-.609-4.696 2.277.256.757-.368.177-1.029-2.158.369-.177.387.609 4.739-2.265-1.185-2.43-4.75 2.308.256.758-.369.176-1.04-2.115.369-.176.356.554 4.696-2.276-.225-.703.369-.177 2.622 5.293Zm-4.644 4.311c.083-.483.326-.877.655-1.248.372-.359.83-.696 1.404-.955.575-.259 1.157-.379 1.694-.327.537.053 1.008.179 1.434.476.425.298.73.701.927 1.167.33.823.372 1.523.017 2.162-.312.651-.955 1.167-1.833 1.529-.617.248-1.2.367-1.737.315-.537-.052-1.051-.19-1.476-.487-.425-.298-.73-.701-.97-1.178-.142-.497-.23-1.026-.115-1.454Zm4.578-1.666c-.569-.106-1.248.033-2.126.395-.78.341-1.346.741-1.655 1.209-.309.468-.393.951-.165 1.471.228.52.611.806 1.179.912.568.107 1.291-.021 2.126-.394.78-.342 1.346-.741 1.655-1.209.309-.468.35-.963.164-1.471-.227-.52-.61-.807-1.178-.913Zm-.112 7.27c-.777.159-1.391.224-1.831.152-.214-.057-.428-.115-.534-.235a1.13 1.13 0 0 1-.336-.457 1.751 1.751 0 0 1-.162-.595l.629-.29c.008.14.091.345.205.605.019.098.094.163.168.229.074.066.16.089.288.123.783.164 2.143-.114 4.037-.846l.618-.248-.253-.94.411-.165 1.72 4.547-.412.165-.364-.695-4.904 1.854.202.789-.4.122-.906-2.446.4-.123.385.792 4.904-1.854-.587-1.58-.714.268c-.943.436-1.786.669-2.564.828Zm4.995 3.634-.139-.68.4-.123 1.34 4.078-1.192.507-.153-.454.686-.505-.612-2-2.26.725.472 1.321.712-.085.153.454-1.86.603-.154-.454.641-.333-.419-1.352-2.369.788.823 2.241 1.171.084.003.506-1.477.201-1.475-4.435.4-.123.291.629 5.018-1.593Zm2.157 6.683-.461-1.363-1.8.207-.131-.54 2.192-.469 1.442 5.069-2.163.706-.143-.497 1.627-.758-.353-1.426-5.112 1.431.239 1.165-.4.123-.874-3.081.4-.122.371 1.017 5.166-1.462Zm-1.326 7.174-.08-.388c-.105-.12-.319-.178-.619-.258-.3-.08-.654-.129-1.094-.201-.44-.072-.74-.153-.954-.21-.214-.057-.331-.135-.351-.232l-.25-1.123.389-.079.145.314c.031.055.148.132.308.221.172.045.429.114.76.249l1.028.275c.245.112.448.212.596.344.018-.409.153-.74.362-1.005.263-.297.589-.485.977-.565.637-.15 1.163-.055 1.491.262.328.318.599.849.769 1.584.052.151.08.388.108.625.017.28.057.475.108.626l.281 1.177-.4.123-.279-.672-5.097 1.205.116.766-.377.036-.594-2.408.388-.08.256.757 2.161-.523-.148-.82Zm3.154-.119c-.029-.237-.057-.474-.097-.668-.11-.443-.267-.715-.49-.912-.222-.197-.588-.203-1.031-.093-.443.111-.769.299-.935.576-.166.277-.215.631-.104 1.074.111.443.171.735.233.843l2.506-.614-.082-.206Zm.986 4.718-.31-1.415-1.808.067-.088-.529 2.231-.274 1.011 5.137-2.203.511-.088-.528 1.678-.607-.213-1.434-5.223.988.142 1.186-.389.079-.625-3.151.389-.08.316 1.049 5.18-.999Zm-4.22 7.867c.212-.448.553-.862.987-1.113.446-.294.997-.467 1.623-.575.614-.065 1.206-.044 1.697.179.502.181.916.521 1.264.936.348.414.533.923.609 1.494.069.432.071.937-.004 1.56l-.026.268-1.497.104-.077-.571 1.018-.37c.066-.074.111-.246.114-.428.004-.183.03-.452-.042-.7a1.564 1.564 0 0 0-.447-.901c-.254-.251-.574-.429-1.002-.544-.428-.114-.891-.101-1.451-.067-.528.088-.971.199-1.394.407-.423.208-.718.45-.938.758-.22.309-.281.706-.244 1.083.059.291.088.528.182.691.051.152.157.272.262.392l.857.229-.009.549-1.226-.053a1.643 1.643 0 0 0-.185-.509c-.083-.205-.177-.368-.216-.563-.04-.194-.123-.4-.14-.68.01-.548.062-1.085.285-1.576Zm6.717 6.115-.42.025-.19-.831-4.234.38 1.076.61 3.191 2.141.237-.029.024-.774.42-.025.208 2.306-.42.025-.15-.637-5.225.482-.013.731-.419.025-.198-2.348.42-.025.171.734 4.276-.369-1.044-.555-3.223-2.195-.28.017-.023.774-.42.025-.198-2.348.42-.026.14.68 5.225-.482.043-.677.42-.025.186 2.391Zm.577 9.153-2.197.146-.034-.56 1.695-.327-.012-1.839-5.297.233-.024 1.463-.42.025-.171-3.305.42-.025.125.905 5.211-.256.058-.903.42-.025.226 4.468Zm-.487 1.476.086-.665.409.017-.017 2.291-.409-.017-.084-.712-2.248-.005-.018 2.979 2.248.006.086-.666.409.018-.006 2.248-.408-.018-.097-.668-5.238.019-.087.666-.408-.018.005-2.248.409.017.084.712 2.431.008.018-2.979-2.431-.008-.098.708-.408-.018-.026-2.302.409.018.096.668 5.293-.051Zm.47 8.527-.015.914-5.892 1.773-.095.525-.409-.017.091-2.225.409.017.042.7 1.286-.344.105-2.451-1.207-.461-.098.708-.409-.017.077-2 .408.018.046.517 5.661 2.343Zm-1.374.504.734-.17-.76-.25-2.672-.991-.111 2.128 2.809-.717Zm-2.97 5.081c-.771-.206-1.316-.398-1.698-.685-.192-.143-.34-.274-.391-.426-.094-.163-.091-.345-.088-.528.026-.269.029-.451.106-.568h.689c-.035.129-.049.355-.075.623-.023.086-.003.183.059.291.02.098.094.163.211.241.605.483 1.988.808 4.007.981l.677.044.167-.965.408.017-.426 4.844-.408-.017-.019-.786-5.198-.474-.176.825-.408-.018.237-2.599.409.018-.004.871 5.198.475.136-1.708-.762-.067a23.426 23.426 0 0 1-2.651-.389Zm.74 7.177c-.087.665-.322 1.199-.725 1.504-.36.317-.846.416-1.425.353-.623-.075-1.091-.385-1.385-.83-.294-.446-.37-1.018-.284-1.683a.576.576 0 0 0 .027-.269c-.02-.097.045-.171.08-.3.08-.299.118-.611.187-.868l.169-1.148.397.061-.012.731 5.215.754.227-.673.397.06-.363 2.382-.397-.061-.051-.839-1.942-.291-.115 1.117Zm-3.261-1.196c-.023.086-.069.257-.072.44-.083.483.008.829.25 1.123.243.295.562.472 1.057.513.439.072.828-.008 1.068-.219.283-.2.418-.531.501-1.013l.133-.837-2.834-.392-.103.385Zm4.931 6.785-.397-.061.024-.774-5.173-.743-.206.771-.397-.06.331-2.437.397.061-.023.774 5.172.743.206-.771.397.061-.331 2.436Zm-1.267 3.7.258-.619.386.103-.512 2.25-.385-.103.055-.72-2.207-.499-.641 2.904 2.208.5.257-.62.386.103-.5 2.208-.385-.103.043-.677-5.123-1.098-.215.631-.385-.103.499-2.207.386.103-.044.677 2.391.503.64-2.905-2.39-.502-.238.716-.386-.103.511-2.25.386.103-.044.677 5.049 1.031Zm-1.366 8.357-.241.899-6.119.564-.224.491-.385-.103.531-2.153.385.103-.098.708 1.303-.064.588-2.367-1.107-.664-.269.662-.386-.103.474-1.939.385.103-.052.537 5.215 3.326Zm-1.423.169.786-.019-.682-.366-2.407-1.471-.508 2.067 2.811-.211Zm-1.067 6.555.412-.854.374.147-.702 2.107-3.968-.099-1.085-.062.947.576 3.231 2.335-.702 2.107-.374-.146.198-.911-5.189-1.023-.312.65-.374-.146.759-2.321.374.146-.152.74 3.718.858 1.608.339-1.042-.738-3.718-2.741.18-.502 4.271-.004 1.688.039-1.516-.681-3.492-1.533-.346.78-.374-.147.69-2.064.374.146-.14.697 4.662 2.305Z"/>
    <path d="m308.853 227.715-.327.877-6.138-.222-.255.437-.374-.146.831-2.073.374.146-.184.686 1.311.076.889-2.287-1.019-.824-.355.639-.374-.146.731-1.87.374.146-.095.525 4.611 4.036Zm-1.463-.024.763.066-.616-.44-2.186-1.779-.765 1.998 2.804.155Zm-.821 4.095.375-.542.374.146-.458 1.025c-.101.203-.147.374-.235.534-.123.288-.192.545-.304.791-.335.736-.687 1.193-1.11 1.401-.412.165-.874.179-1.451-.068-.405-.2-.714-.42-.945-.758-.231-.337-.322-.683-.347-1.103-.025-.42.09-.848.29-1.253.089-.16.123-.289.212-.449.089-.159.112-.245.166-.276l-1.687-.728-.544 1.002-.374-.146 1.128-2.498.374.146-.226.674 4.762 2.102Zm-3.405.373c-.201.405-.207.771-.085 1.171.123.4.462.675 1.039.921.448.212.814.218 1.074.104.314-.145.535-.453.747-.901.088-.16.134-.332.192-.546l.068-.257-2.755-1.197c-.034.128-.146.374-.28.705Zm-4.017 2.826a2.908 2.908 0 0 1 1.437-.395c.549.009 1.106.158 1.671.447.565.29 1.022.641 1.315 1.087.337.458.479.955.524 1.472a2.768 2.768 0 0 1-.327 1.565c-.201.405-.498.831-.862 1.33l-.154.234-1.322-.721.223-.491 1.071.287c.097-.02.217-.126.349-.274.132-.148.232-.351.386-.585.178-.32.215-.631.136-1.02-.048-.334-.236-.66-.51-1.009-.286-.306-.668-.592-1.19-.87-.491-.223-.951-.392-1.391-.464-.44-.072-.86-.047-1.228.13-.358.134-.609.388-.81.793-.123.288-.223.491-.226.674a.744.744 0 0 0 .014.463l.602.666-.298.425-.999-.726.138-.514c.057-.215.06-.397.118-.612.046-.171.157-.416.269-.662.278-.522.618-.936 1.064-1.23Zm.167 12.394-.351-.231.347-.78-3.654-2.126.53 1.106 1.327 3.615.202.1.484-.605.351.232-1.174 1.981-.351-.232.258-.62-4.527-2.636-.429.574-.363-.189 1.185-2.024.363.189-.324.694 3.685 2.181-.553-1.021-1.315-3.658-.277-.166-.495.648-.362-.189 1.196-2.066.363.189-.27.662 4.528 2.636.417-.531.351.232-1.142 2.035Zm-3.027 4.79c-.112.246-.169.46-.258.62-.089.159-.178.319-.255.436-.386.585-.769.988-1.181 1.153-.411.165-.82.148-1.214-.096a1.382 1.382 0 0 1-.661-.957c-.08-.389-.031-.743.127-1.16-.298.425-.647.699-1.035.779-.389.079-.743.03-1.094-.202-.511-.32-.816-.723-.861-1.24-.057-.475.104-1.074.568-1.777.166-.276.363-.499.56-.722.186-.179.361-.316.481-.422.12-.105.186-.179.228-.168l1.136.901-.232.351-1.036-.415c-.272.157-.523.411-.821.836a1.12 1.12 0 0 0-.198.911c.06.291.314.543.707.786.277.166.577.246.911.198.335-.048.629-.29.872-.684l.321-.511.394.243-.243.394c-.143.191-.201.405-.258.62-.015.225.014.462.096.668.083.206.262.392.496.546.309.221.62.258.869.187.248-.071.488-.282.709-.59.143-.192.243-.394.246-.577.046-.171.038-.311-.025-.42l-.582-.569.297-.425 1.119.621c-.026.268-.114.428-.183.685Zm-4.412 5.842.503-.508.351.232-.661.925c-.132.148-.232.351-.398.628-.154.234-.243.394-.32.511-.441.616-.867 1.007-1.267 1.129-.4.123-.797.062-1.137-.212-.308-.221-.55-.515-.63-.904-.091-.346-.042-.7.104-1.074-.297.426-.646.699-1.046.822-.389.079-.786.019-1.125-.256-.457-.352-.708-.786-.753-1.303-.045-.517.181-1.191.742-1.913.132-.149.221-.309.352-.457.275-.34.429-.574.484-.605l.661-.925.351.232-.344.597 4.133 3.081Zm-5.371-1.714c-.352.456-.467.884-.462 1.207.006.323.237.66.588.892.339.275.682.367.973.307.292-.06.586-.302.872-.685.352-.456.53-.776.607-.893l-2.041-1.465c-.054.032-.251.254-.537.637Zm2.729 1.465-.286.383c-.221.308-.301.608-.241.899.059.292.259.575.567.795.308.22.608.301.888.284.249-.071.532-.271.829-.696.132-.148.232-.351.321-.511l.089-.16-1.881-1.376c-.023.086-.143.191-.286.382Zm-1.313 6.443-.561.722-5.839-2.024-.372.36-.339-.275 1.384-1.741.34.275-.386.585 1.207.461 1.528-1.932-.724-1.066-.504.508-.339-.275 1.241-1.549.34.274-.266.48 3.29 5.197Zm-1.391-.465.706.281-.474-.632-1.574-2.35-1.319 1.667 2.661 1.034Zm-6.43.527a2.8 2.8 0 0 1 1.517-.007c.514.138 1.025.459 1.513.865.488.406.824.863 1.009 1.372.185.509.23 1.026.135 1.551-.094.526-.361 1.005-.701 1.419-.275.34-.689.688-1.158 1.067l-.229.168-1.09-1.072.383-.402.959.532c.098-.02.249-.071.423-.208.163-.094.349-.274.504-.508.252-.254.386-.585.392-.951.049-.354-.042-.699-.261-1.08-.22-.38-.482-.771-.939-1.123-.413-.341-.796-.627-1.213-.784a2.622 2.622 0 0 0-1.191-.182c-.377.037-.703.225-.977.565-.198.222-.341.413-.387.585-.088.159-.08.299-.114.428l.384.792-.414.348-.759-.938c.066-.074.155-.234.266-.48.101-.202.189-.362.278-.522.089-.16.232-.351.429-.574a2.454 2.454 0 0 1 1.241-.861Zm-1.765 8.984c.142.498.156.96.041 1.389-.114.428-.315.833-.675 1.15-.383.402-.818.653-1.261.764-.443.111-.937.07-1.396-.099-.46-.169-.928-.478-1.373-.873-.477-.449-.845-.96-1.018-1.512-.185-.509-.273-1.037-.147-1.508.083-.483.338-.92.667-1.291a3.1 3.1 0 0 1 1.272-.807 2.41 2.41 0 0 1 1.397.099c.46.169.928.478 1.373.873l.952-.984-1.789-1.719-.577.442-.286-.306 1.599-1.683.297.263-.429.573 3.757 3.624.524-.411.285.306-1.587 1.641-.286-.306.429-.574-1.64-1.587-.952.984c.442.578.681 1.055.823 1.552Zm-.529.777c-.131-.54-.519-1.149-1.175-1.784-.582-.569-1.179-.913-1.747-1.019-.568-.107-1.065.036-1.449.438-.383.402-.498.831-.367 1.371s.519 1.149 1.218 1.795c.582.569 1.135.901 1.692 1.05.557.15 1.011-.004 1.395-.406.383-.403.509-.874.433-1.445Zm-7.706 4.087c-.355-.049-.826-.176-1.383-.325l-.899-.241c-.171-.046-.311-.037-.42.025l-.314.146-.286-.306.744-.719c.109-.063.26-.114.56-.034l1.156.31c.546.192.974.307 1.328.356.3.08.537.052.669-.096l.371-.36-1.637-1.77-.62.431-.286-.306 1.705-1.564.285.306-.461.52 3.561 3.846.566-.399.285.306-1.65 1.532-.285-.306.429-.574-1.638-1.77-.546.496.402 2.954.566-.399.286.306-1.53 1.426-.286-.306.418-.53-.336-3.029c-.077.117-.4.123-.754.074Zm-4.183.532a2.21 2.21 0 0 1 1.394.281c.491.224.893.607 1.315 1.087.422.481.693 1.012.824 1.552s.133 1.046-.036 1.506c-.169.459-.424.896-.839 1.244-.655.559-1.358.784-2.066.686-.708-.098-1.367-.55-2.044-1.282a3.662 3.662 0 0 1-.823-1.552c-.131-.54-.133-1.046.047-1.548.138-.514.424-.897.839-1.245.449-.476.915-.673 1.389-.729Zm2.958 3.868c-.077-.572-.41-1.212-1.012-1.878-.559-.655-1.102-1.03-1.647-1.222-.545-.192-1.031-.092-1.446.256-.414.348-.583.807-.507 1.379.076.571.41 1.211 1 1.92.559.655 1.102 1.03 1.647 1.222.557.149 1.043.05 1.457-.298.415-.348.584-.808.508-1.379Zm-3.918 4 .597-.345.274.349-.872.684c-.163.095-.349.274-.546.497-.186.18-.361.316-.469.379-.632.474-1.11.713-1.529.738-.42.025-.783-.164-1.057-.512a1.568 1.568 0 0 1-.37-1.018 1.5 1.5 0 0 1 .404-.993c-.415.348-.826.513-1.235.495-.408-.017-.771-.206-1.044-.555-.337-.458-.479-.955-.384-1.48.095-.526.524-1.099 1.222-1.647.174-.137.337-.231.457-.337.349-.273.566-.399.632-.473l.872-.684.231.337-.504.508 3.321 4.057Zm-4.681-3.091c-.458.337-.69.688-.739 1.042-.049.354.042.7.316 1.049s.551.515.862.552c.312.038.626-.108 1.029-.413.457-.336.752-.579.829-.696l-1.537-1.973c-.171-.045-.4.123-.76.439Zm2.222 2.157-.349.274c-.294.242-.46.519-.498.83-.037.312.065.615.351.921.242.294.519.46.787.486.269.026.583-.119.986-.424.175-.137.306-.286.481-.423l.12-.105-1.432-1.853c-.151.051-.271.157-.446.294Z"/>
    <circle cx="78.06" cy="75.585" r=".901" style="mix-blend-mode:overlay"/>
    <circle cx="260.376" cy="64.034" r=".901" style="mix-blend-mode:overlay"/>
  </g>
</svg>
